#N canvas 225 23 886 741 12;
#X obj 246 478 *~;
#X floatatom 246 393 0 0 0 0 - - -;
#X floatatom 156 428 0 0 0 0 - - -;
#X obj 156 498 +~;
#X floatatom 268 448 0 0 0 0 - - -;
#X text 153 385 carrier;
#X text 152 403 frequency;
#X text 231 339 frequency;
#X text 232 352 modulation;
#X obj 155 622 osc~;
#X text 39 524 "carrier";
#X text 21 542 oscillator -->;
#X text 34 459 add modulator;
#X text 33 477 to carrier;
#X text 31 496 frequency -->;
#X text 307 460 index;
#X text 309 441 modulation;
#X obj 246 418 osc~;
#X obj 10 119 cyclone/mousestate;
#X text 144 120 // import external cyclone v 0.4;
#X obj 10 92 metro 10;
#X obj 10 71 tgl 15 0 empty empty empty 17 7 0 10 -262144 -1 -1 1 1
;
#X obj 10 44 loadbang;
#X text 8 3 // One-Many mapping / event mapping;
#X obj 155 696 dac~;
#X floatatom 10 147 5 0 0 0 - - -;
#X obj 10 171 change;
#X obj 10 195 t b;
#X floatatom 10 268 5 0 0 0 - - -;
#X obj 162 286 expr $f1 * 100 \; $f1 * 0.5 \; $f1 * 1 \;;
#X text 453 582 // expand your knowledge;
#X text 432 102 // excercise:;
#X obj 88 165 s envelopeValue;
#X obj 243 508 r envelopeValue;
#X obj 243 532 t f b;
#X msg 243 556 \$1 100;
#X obj 243 580 line~;
#X obj 243 603 *~;
#X obj 243 628 *~;
#X obj 155 646 *~;
#X obj 10 219 random 9;
#X obj 10 243 + 1;
#X text 37 242 // random integres 1-10;
#X text 453 602 // phase modulation synthesis PD implementation;
#X text 453 622 // cmd/ctrl + B --> Pure Data/ 3.audio.examples/E08.phase.mod.pd
;
#N canvas 438 73 607 514 sequence 0;
#X floatatom 31 197 5 0 0 0 - - -;
#X floatatom 83 198 5 0 0 0 - - -;
#X obj 31 271 pack f f;
#X obj 83 221 t b f;
#X obj 116 261 * 0.01;
#X text 25 177 index;
#X text 80 176 value;
#X obj 221 157 t b;
#X obj 221 133 r event;
#X obj 221 185 metro 1000;
#X obj 221 209 f;
#X obj 221 233 + 1;
#X floatatom 221 332 5 0 0 0 - - -;
#X obj 221 354 mtof;
#X floatatom 221 378 5 0 0 0 - - -;
#X obj 221 401 s note;
#X obj 221 257 % 10;
#X msg 31 298 \; array1 \$1 \$2;
#X obj 221 306 tabread array1;
#X floatatom 221 280 5 0 0 0 - - -;
#N canvas 0 22 450 278 (subpatch) 0;
#X array array1 10 float 3;
#A 0 60 62 63 67 69 71 72 74 75 79;
#X coords 0 1 10 -1 200 140 1 0 0;
#X restore 14 17 graph;
#X msg 227 77 \; array1 read scale.txt;
#X msg 227 35 \; array1 0 83 84 86 88 90 91 93 95 96 98;
#X text 229 14 // different scales;
#X connect 0 0 2 0;
#X connect 1 0 3 0;
#X connect 2 0 17 0;
#X connect 3 0 2 0;
#X connect 3 1 4 0;
#X connect 4 0 2 1;
#X connect 7 0 9 0;
#X connect 8 0 7 0;
#X connect 9 0 10 0;
#X connect 10 0 11 0;
#X connect 11 0 10 1;
#X connect 11 0 16 0;
#X connect 12 0 13 0;
#X connect 13 0 14 0;
#X connect 14 0 15 0;
#X connect 16 0 19 0;
#X connect 18 0 12 0;
#X connect 19 0 18 0;
#X restore 627 222 pd sequence;
#X obj 87 218 s event;
#X obj 66 382 r note;
#X text 432 122 // instead of triggering a note \, trigger a sequence
;
#X text 431 142 // remeber to use arrays or messages + select;
#X connect 0 0 3 1;
#X connect 1 0 17 0;
#X connect 2 0 3 0;
#X connect 3 0 9 0;
#X connect 4 0 0 1;
#X connect 9 0 39 0;
#X connect 17 0 0 0;
#X connect 18 0 25 0;
#X connect 20 0 18 0;
#X connect 21 0 20 0;
#X connect 22 0 21 0;
#X connect 25 0 26 0;
#X connect 25 0 32 0;
#X connect 26 0 27 0;
#X connect 27 0 40 0;
#X connect 27 0 46 0;
#X connect 28 0 29 0;
#X connect 29 0 2 0;
#X connect 29 1 1 0;
#X connect 29 2 4 0;
#X connect 33 0 34 0;
#X connect 34 0 35 0;
#X connect 35 0 36 0;
#X connect 36 0 37 0;
#X connect 36 0 37 1;
#X connect 37 0 38 0;
#X connect 37 0 38 1;
#X connect 38 0 39 1;
#X connect 39 0 24 0;
#X connect 39 0 24 1;
#X connect 40 0 41 0;
#X connect 41 0 28 0;
