#N canvas 637 36 549 775 12;
#X obj 176 33 inlet;
#X obj 176 211 f;
#X obj 176 57 t b a;
#X obj 208 87 unpack f f f;
#X obj 194 180 r grainDuration;
#X obj 176 265 * 1;
#X obj 176 289 t f f;
#X msg 248 320 0 \, 1 \$1 0;
#X text 263 296 // grain envelope;
#X obj 248 344 vline~;
#X obj 248 438 *~;
#X obj 289 111 s \$0-thisDur;
#X obj 248 131 s \$0-thisPitch;
#X obj 208 151 s \$0-thisStart;
#X obj 194 241 r \$0-thisDur;
#X obj 266 388 r grainPitch;
#X obj 248 492 *~ 1;
#X obj 273 461 r \$0-thisPitch;
#X obj 176 403 / 1000;
#X obj 176 427 sig~;
#X obj 230 521 *~;
#X obj 230 575 +~;
#X obj 230 629 +~;
#X obj 248 548 r grainStart;
#X obj 248 601 r \$0-thisStart;
#X obj 16 436 *~ 2048;
#X obj 212 694 *~;
#X obj 212 718 throw~ bus;
#X obj 230 653 tabread4~ source1;
#X obj 16 470 tabread4~ hanningWindow;
#X obj 62 365 r window-size;
#X obj 266 412 lop~ 1;
#X connect 0 0 2 0;
#X connect 1 0 5 0;
#X connect 2 0 1 0;
#X connect 2 1 3 0;
#X connect 3 0 13 0;
#X connect 3 1 12 0;
#X connect 3 2 11 0;
#X connect 4 0 1 1;
#X connect 5 0 6 0;
#X connect 6 0 18 0;
#X connect 6 1 7 0;
#X connect 7 0 9 0;
#X connect 9 0 10 0;
#X connect 9 0 25 0;
#X connect 10 0 16 0;
#X connect 14 0 5 1;
#X connect 15 0 31 0;
#X connect 16 0 20 1;
#X connect 17 0 16 1;
#X connect 18 0 19 0;
#X connect 19 0 20 0;
#X connect 20 0 21 0;
#X connect 21 0 22 0;
#X connect 22 0 28 0;
#X connect 23 0 21 1;
#X connect 24 0 22 1;
#X connect 25 0 29 0;
#X connect 26 0 27 0;
#X connect 28 0 26 1;
#X connect 29 0 26 0;
#X connect 30 0 25 1;
#X connect 31 0 10 1;
