#N canvas 123 35 1088 815 12;
#X obj 25 23 table sample1;
#X obj 25 58 loadbang;
#X msg 25 106 read -resize \$1 sample1;
#X obj 25 130 soundfiler;
#X obj 25 154 s \$0-sampleSize;
#X obj 140 154 unpack 0;
#X obj 140 178 s \$0-sampleRate;
#X floatatom 26 333 7 0 0 0 - - -;
#X floatatom 26 447 5 0 0 0 - - -;
#X obj 26 474 s \$0-sampleDur;
#X obj 26 308 r \$0-sampleSize;
#X text 25 259 // sample lenght calculation in msec, f 18;
#X obj 84 333 r \$0-sampleRate;
#X obj 26 417 / 44.1;
#X obj 84 357 / 1000;
#X obj 75 383 t f b;
#X obj 302 208 tgl 15 0 empty empty playback_on/off 17 7 0 10 -262144
-1 -1 1 1;
#X obj 302 283 metro;
#X obj 302 385 pack f f f, f 26;
#X obj 529 247 hsl 128 15 0 3.72486e+06 0 0 empty sample Beginning_point
-2 -8 0 10 -262144 -1 -1 10643 1;
#X obj 537 309 hsl 128 15 0 3.72486e+06 0 0 empty sample End_point
-2 -8 0 10 -262144 -1 -1 12700 1;
#X floatatom 526 407 7 0 0 0 - - -;
#X obj 526 362 expr ($f2 - $f1) / 44.1;
#X obj 534 334 t b f;
#X msg 302 408 \$1 0 \, \$2 \$3;
#X obj 302 434 vline~;
#X obj 481 158 r \$0-pb-speed;
#X obj 526 545 s \$0-pb-speed;
#X obj 592 449 hsl 128 15 2 0.01 0 0 empty empty playback_speed -2
-8 0 10 -262144 -1 -1 11551 1;
#X obj 526 516 *;
#X obj 589 468 t b f;
#X obj 302 570 *~;
#X obj 301 597 dac~;
#X obj 526 384 abs;
#X msg 25 208 \; sample range 0 \$1 \;;
#X obj 302 484 tabread4~ sample1;
#X obj 391 347 t f b;
#X obj 481 190 t f b;
#X obj 302 458 lop~ 1;
#X text 553 387 // duration of specified part;
#X obj 373 524 vsl 15 50 0.001 1 1 0 empty empty empty 0 -9 0 10 -262144
-1 -1 4900 1;
#X msg 373 582 \$1 10;
#X obj 373 636 *~;
#X obj 373 660 *~;
#X obj 373 606 line~;
#X obj 688 100 tgl 15 0 empty empty empty 17 7 0 10 -262144 -1 -1 1
1;
#X obj 688 75 loadbang;
#X obj 688 120 metro;
#X obj 688 164 random;
#X obj 811 131 r \$0-sampleSize;
#X floatatom 688 188 10 0 0 0 - - -;
#X obj 788 33 tgl 15 0 empty empty empty 17 7 0 10 -262144 -1 -1 1
1;
#X obj 788 8 loadbang;
#X floatatom 772 188 10 0 0 0 - - -;
#X obj 688 241 +;
#X obj 772 164 random;
#X obj 589 176 * 0.01;
#X msg 25 82 read samples/stravinsky.wav;
#X text 471 643 // Study how the parameter works and build your own
mappings while still being able to change between microsound and musical
notes;
#X obj 788 101 + 10;
#X obj 788 53 metro 2000;
#X text 471 588 // excercise:;
#X obj 688 211 pipe 1;
#X floatatom 589 200 5 0 0 0 - - -;
#X obj 589 152 random 200;
#X text 471 608 // This is a one-many mapping where the cumputer has
all control;
#X msg 50 555 \; pd dsp \$1;
#X obj 50 511 loadbang;
#X obj 50 535 tgl 15 0 empty empty empty 17 7 0 10 -262144 -1 -1 0
1;
#X text 15 706 // expand your knowledge;
#X text 15 746 // cmd/ctrl + B --> Pure Data/ 3.audio.examples/B14.sampler.rockafella.pd
;
#X text 15 726 // sample time manipulation with constant pitch;
#X floatatom 873 19 5 0 0 0 - - -;
#X obj 873 53 - 10;
#X obj 788 77 random 1990;
#X connect 1 0 57 0;
#X connect 2 0 3 0;
#X connect 3 0 4 0;
#X connect 3 0 34 0;
#X connect 3 1 5 0;
#X connect 5 0 6 0;
#X connect 7 0 13 0;
#X connect 8 0 9 0;
#X connect 10 0 7 0;
#X connect 12 0 14 0;
#X connect 13 0 8 0;
#X connect 14 0 15 0;
#X connect 15 0 13 1;
#X connect 15 1 13 0;
#X connect 16 0 17 0;
#X connect 17 0 18 0;
#X connect 18 0 24 0;
#X connect 19 0 22 0;
#X connect 19 0 18 0;
#X connect 20 0 23 0;
#X connect 20 0 36 0;
#X connect 21 0 29 0;
#X connect 22 0 33 0;
#X connect 23 0 22 0;
#X connect 23 1 22 1;
#X connect 24 0 25 0;
#X connect 25 0 38 0;
#X connect 26 0 17 1;
#X connect 26 0 37 0;
#X connect 28 0 30 0;
#X connect 29 0 27 0;
#X connect 30 0 29 0;
#X connect 30 1 29 1;
#X connect 31 0 32 0;
#X connect 31 0 32 1;
#X connect 33 0 21 0;
#X connect 35 0 31 0;
#X connect 36 0 18 1;
#X connect 36 1 18 0;
#X connect 37 0 18 2;
#X connect 37 1 18 0;
#X connect 38 0 35 0;
#X connect 40 0 41 0;
#X connect 41 0 44 0;
#X connect 42 0 43 0;
#X connect 42 0 43 1;
#X connect 43 0 31 1;
#X connect 44 0 42 0;
#X connect 44 0 42 1;
#X connect 45 0 47 0;
#X connect 46 0 45 0;
#X connect 47 0 48 0;
#X connect 47 0 55 0;
#X connect 47 0 64 0;
#X connect 48 0 50 0;
#X connect 49 0 48 1;
#X connect 49 0 55 1;
#X connect 50 0 19 0;
#X connect 50 0 62 0;
#X connect 51 0 60 0;
#X connect 52 0 51 0;
#X connect 53 0 54 1;
#X connect 54 0 20 0;
#X connect 55 0 53 0;
#X connect 56 0 28 0;
#X connect 56 0 63 0;
#X connect 57 0 2 0;
#X connect 59 0 47 1;
#X connect 60 0 74 0;
#X connect 62 0 54 0;
#X connect 64 0 56 0;
#X connect 67 0 68 0;
#X connect 68 0 66 0;
#X connect 72 0 60 1;
#X connect 72 0 73 0;
#X connect 73 0 74 1;
#X connect 74 0 59 0;
