#N canvas 119 277 1320 856 12;
#X obj 25 23 table sample1;
#X obj 25 58 loadbang;
#X msg 25 106 read -resize \$1 sample1;
#X obj 25 130 soundfiler;
#X obj 25 154 s \$0-sampleSize;
#X obj 140 154 unpack 0;
#X obj 140 178 s \$0-sampleRate;
#X floatatom 26 333 7 0 0 0 - - -, f 7;
#X floatatom 26 447 5 0 0 0 - - -, f 5;
#X obj 26 474 s \$0-sampleDur;
#X obj 26 308 r \$0-sampleSize;
#X text 25 259 // sample lenght calculation in msec, f 18;
#X obj 84 333 r \$0-sampleRate;
#X obj 26 417 / 44.1;
#X obj 84 357 / 1000;
#X obj 75 383 t f b;
#X obj 302 208 tgl 15 0 empty empty playback_on/off 17 7 0 10 -262144
-1 -1 1 1;
#X obj 302 283 metro;
#X obj 302 385 pack f f f, f 26;
#X obj 529 247 hsl 128 15 0 3.72486e+06 0 0 empty sample Beginning_point
-2 -8 0 10 -262144 -1 -1 12399 1;
#X obj 537 309 hsl 128 15 0 3.72486e+06 0 0 empty sample End_point
-2 -8 0 10 -262144 -1 -1 12700 1;
#X floatatom 526 407 7 0 0 0 - - -, f 7;
#X obj 526 362 expr ($f2 - $f1) / 44.1;
#X obj 534 334 t b f;
#X msg 302 408 \$1 0 \, \$2 \$3;
#X obj 302 434 vline~;
#X obj 481 158 r \$0-pb-speed;
#X obj 526 545 s \$0-pb-speed;
#X obj 592 449 hsl 128 15 2 0.01 0 0 empty empty playback_speed -2
-8 0 10 -262144 -1 -1 11992 1;
#X obj 526 516 *;
#X obj 302 570 *~;
#X obj 526 384 abs;
#X msg 25 208 \; sample range 0 \$1 \;;
#X obj 302 484 tabread4~ sample1;
#X obj 391 347 t f b;
#X obj 481 190 t f b;
#X obj 302 458 lop~ 1;
#X text 553 387 // duration of specified part;
#X obj 373 524 vsl 15 50 0.001 1 1 0 empty empty empty 0 -9 0 10 -262144
-1 -1 0 1;
#X msg 373 582 \$1 10;
#X obj 373 636 *~;
#X obj 373 660 *~;
#X obj 373 606 line~;
#X obj 687 38 tgl 15 0 empty empty empty 17 7 0 10 -262144 -1 -1 0
1;
#X obj 687 13 loadbang;
#X obj 687 58 metro;
#X obj 687 162 random;
#X obj 810 129 r \$0-sampleSize;
#X floatatom 687 186 10 0 0 0 - - -, f 10;
#X obj 787 31 tgl 15 0 empty empty empty 17 7 0 10 -262144 -1 -1 0
1;
#X obj 787 6 loadbang;
#X floatatom 771 186 10 0 0 0 - - -, f 10;
#X obj 687 243 +;
#X obj 771 162 random;
#X msg 25 82 read samples/stravinsky.wav;
#X text 827 306 // Study how the parameter works and build your own
mappings while still being able to change between microsound and musical
notes;
#X obj 787 99 + 10;
#X obj 787 51 metro 2000;
#X text 827 251 // excercise:;
#X obj 687 209 pipe 1;
#X floatatom 588 198 5 0 0 0 - - -, f 5;
#X text 827 271 // This is a one-many mapping where the cumputer has
all control;
#X msg 50 555 \; pd dsp \$1;
#X obj 50 511 loadbang;
#X obj 50 535 tgl 15 0 empty empty empty 17 7 0 10 -262144 -1 -1 1
1;
#X text 15 706 // expand your knowledge;
#X text 15 746 // cmd/ctrl + B --> Pure Data/ 3.audio.examples/B14.sampler.rockafella.pd
;
#X text 15 726 // sample time manipulation with constant pitch;
#X floatatom 872 17 5 0 0 0 - - -, f 5;
#X obj 872 51 - 10;
#X obj 787 75 random 1990;
#N canvas 0 89 505 461 output 0;
#X obj 13 106 hsl 42 23 0.01 0.1 1 0 \$0-v \$0-v volume 7 13 1 9 -245500
-13381 -1 4100 0;
#X obj 57 106 tgl 18 0 THIS_IS_HERE_TO_GET_RID_OF_THE_OUTLET \$0-dsp-toggle
dsp 2 9 1 9 -225271 -195568 -33289 1 1;
#N canvas 1009 460 429 371 dsp 0;
#X obj 36 30 inlet;
#X obj 117 227 select 0 1;
#X msg 150 252 6;
#X obj 117 86 route dsp;
#X obj 117 59 receive pd;
#X msg 36 228 dsp \$1;
#X obj 36 253 send pd;
#X msg 231 279 set \$1;
#X msg 117 279 color \$1 20 12;
#X obj 231 310 send \$0-dsp-toggle;
#X msg 117 251 0;
#X obj 251 129 loadbang;
#X obj 231 99 sig~ 1;
#X obj 231 191 snapshot~;
#X obj 251 158 delay 100;
#X obj 117 138 change -1;
#X obj 2 2 cnv 15 425 20 empty empty empty 3 12 0 14 -204280 -1 0;
#X text 6 3 Retrieve and set DSP state;
#X connect 0 0 5 0;
#X connect 0 0 15 0;
#X connect 1 0 10 0;
#X connect 1 1 2 0;
#X connect 2 0 8 0;
#X connect 3 0 15 0;
#X connect 4 0 3 0;
#X connect 5 0 6 0;
#X connect 7 0 9 0;
#X connect 8 0 9 0;
#X connect 10 0 8 0;
#X connect 11 0 14 0;
#X connect 12 0 13 0;
#X connect 13 0 1 0;
#X connect 13 0 7 0;
#X connect 14 0 13 0;
#X connect 15 0 7 0;
#X connect 15 0 1 0;
#X restore 82 148 pd dsp logic;
#X obj 188 31 inlet~;
#X obj 74 268 line~;
#X obj 174 328 *~;
#X obj 194 358 dac~;
#X text 200 51 audio in;
#X obj 250 31 inlet~;
#X obj 236 327 *~;
#X obj 188 102 hip~ 3;
#X obj 250 102 hip~ 3;
#X obj 10 283 send pd;
#X msg 10 262 dsp 1;
#X obj 74 247 pack 0 50;
#X text 141 246 <-- make a ramp to avoid clicks or zipper noise;
#X msg 74 212 0;
#X obj 74 189 moses 0.011;
#X text 294 103 filter out DC;
#X obj 4 3 cnv 15 425 20 empty empty empty 3 12 0 14 -204280 -1 0;
#X text 14 376 Created by Katja Vetter after an idea by Claude Heiland-Allen
;
#X text 10 3 dac~ and DSP switch;
#X connect 0 0 13 0;
#X connect 0 0 17 0;
#X connect 1 0 2 0;
#X connect 3 0 10 0;
#X connect 4 0 9 0;
#X connect 4 0 5 0;
#X connect 5 0 6 0;
#X connect 8 0 11 0;
#X connect 9 0 6 1;
#X connect 10 0 5 1;
#X connect 11 0 9 1;
#X connect 13 0 12 0;
#X connect 14 0 4 0;
#X connect 16 0 14 0;
#X connect 17 0 16 0;
#X connect 17 1 14 0;
#X coords 0 -1 1 1 85 60 1 5 85;
#X restore 224 606 pd output;
#X obj 128 52 openpanel;
#X obj 595 472 t b f;
#X floatatom 677 484 5 0 0 0 - - -, f 5;
#X floatatom 616 125 5 0 0 0 - - -, f 5;
#X obj 588 174 * 0.001;
#X obj 588 90 random 200;
#X obj 1095 352 cyclone/mousestate;
#X obj 1239 352 keyname;
#X obj 1100 408 notein;
#X text 1091 385 // if you want to get midi;
#X obj 852 679 vline~;
#X msg 852 653 0 \, 1 200 100 \, 0.6 100 250 \, 0 250 900;
#X obj 853 708 *~;
#X obj 853 732 *~;
#X obj 779 726 osc~ 440;
#X obj 779 751 *~;
#X text 851 543 // envelope;
#X text 849 563 // start at 0 \, go to 1 in 200ms stay at 1 100ms;
#X text 848 583 // go to 0.6 in 100ms stay at 0.6 250ms;
#X text 848 603 // go to 0 in 250ms;
#X text 848 623 // the whole envelope lasts 900ms;
#X msg 128 22 bang;
#X text 12 784 // weighted random \, markov chains \, random walk;
#X text 13 803 // cmd/ctrl + B --> Pure Data/ 2.control.examples/20-22
;
#X connect 1 0 54 0;
#X connect 2 0 3 0;
#X connect 3 0 4 0;
#X connect 3 0 32 0;
#X connect 3 1 5 0;
#X connect 5 0 6 0;
#X connect 7 0 13 0;
#X connect 8 0 9 0;
#X connect 10 0 7 0;
#X connect 12 0 14 0;
#X connect 13 0 8 0;
#X connect 14 0 15 0;
#X connect 15 0 13 1;
#X connect 15 1 13 0;
#X connect 16 0 17 0;
#X connect 17 0 18 0;
#X connect 18 0 24 0;
#X connect 19 0 22 0;
#X connect 19 0 18 0;
#X connect 20 0 23 0;
#X connect 20 0 34 0;
#X connect 21 0 29 0;
#X connect 22 0 31 0;
#X connect 23 0 22 0;
#X connect 23 1 22 1;
#X connect 24 0 25 0;
#X connect 25 0 36 0;
#X connect 26 0 17 1;
#X connect 26 0 35 0;
#X connect 28 0 73 0;
#X connect 28 0 74 0;
#X connect 29 0 27 0;
#X connect 30 0 71 0;
#X connect 30 0 71 1;
#X connect 31 0 21 0;
#X connect 33 0 30 0;
#X connect 34 0 18 1;
#X connect 34 1 18 0;
#X connect 35 0 18 2;
#X connect 35 1 18 0;
#X connect 36 0 33 0;
#X connect 38 0 39 0;
#X connect 39 0 42 0;
#X connect 40 0 41 0;
#X connect 40 0 41 1;
#X connect 41 0 30 1;
#X connect 42 0 40 0;
#X connect 42 0 40 1;
#X connect 43 0 45 0;
#X connect 44 0 43 0;
#X connect 45 0 46 0;
#X connect 45 0 53 0;
#X connect 45 0 77 0;
#X connect 46 0 48 0;
#X connect 47 0 46 1;
#X connect 47 0 53 1;
#X connect 48 0 59 0;
#X connect 48 0 19 0;
#X connect 49 0 57 0;
#X connect 49 0 43 0;
#X connect 50 0 49 0;
#X connect 51 0 52 1;
#X connect 52 0 20 0;
#X connect 53 0 51 0;
#X connect 54 0 2 0;
#X connect 56 0 45 1;
#X connect 57 0 70 0;
#X connect 59 0 52 0;
#X connect 60 0 28 0;
#X connect 63 0 64 0;
#X connect 64 0 62 0;
#X connect 68 0 57 1;
#X connect 68 0 69 0;
#X connect 69 0 70 1;
#X connect 70 0 56 0;
#X connect 72 0 2 0;
#X connect 73 0 29 0;
#X connect 73 1 29 1;
#X connect 76 0 60 0;
#X connect 77 0 75 0;
#X connect 77 0 76 0;
#X connect 82 0 84 0;
#X connect 82 0 84 1;
#X connect 83 0 82 0;
#X connect 84 0 85 0;
#X connect 84 0 85 1;
#X connect 85 0 87 1;
#X connect 86 0 87 0;
#X connect 93 0 72 0;
