#N canvas 548 255 1036 811 10;
#N canvas 579 89 417 429 convolution 0;
#X obj 4 17 inlet~;
#X obj 204 17 inlet~;
#X obj 4 69 *~;
#X obj 204 69 *~;
#X obj 4 91 rfft~;
#X obj 204 91 rfft~;
#X obj 4 143 *~;
#X obj 31 143 *~;
#X obj 204 143 *~;
#X obj 231 143 *~;
#X obj 4 165 +~;
#X obj 216 165 +~;
#X obj 101 182 rifft~;
#X obj 101 224 *~;
#X obj 101 316 /~;
#X obj 179 306 block~ 2048 4;
#X msg 179 283 set \$1 4;
#X obj 101 348 outlet~;
#X obj 19 48 tabreceive~ hanningWindow;
#X obj 219 48 tabreceive~ hanningWindow;
#X obj 179 231 r windowSize;
#X obj 116 202 tabreceive~ hanningWindow;
#X obj 116 283 * 1.5;
#X connect 0 0 2 0;
#X connect 1 0 3 0;
#X connect 2 0 4 0;
#X connect 3 0 5 0;
#X connect 4 0 6 0;
#X connect 4 0 8 1;
#X connect 4 1 7 0;
#X connect 4 1 9 1;
#X connect 5 0 8 0;
#X connect 5 0 6 1;
#X connect 5 1 9 0;
#X connect 5 1 7 1;
#X connect 6 0 10 0;
#X connect 7 0 10 1;
#X connect 8 0 11 0;
#X connect 9 0 11 1;
#X connect 10 0 12 0;
#X connect 11 0 12 1;
#X connect 12 0 13 0;
#X connect 13 0 14 0;
#X connect 14 0 17 0;
#X connect 16 0 15 0;
#X connect 18 0 2 1;
#X connect 19 0 3 1;
#X connect 20 0 16 0;
#X connect 20 0 22 0;
#X connect 21 0 13 1;
#X connect 22 0 14 1;
#X restore 318 402 pd convolution;
#N canvas 470 219 565 454 hann-window 0;
#N canvas 0 0 450 300 (subpatch) 0;
#X array hanningWindow 512 float 0;
#X coords 0 1 511 0 300 100 1;
#X restore 82 311 graph;
#X obj 438 165 osc~;
#X obj 438 190 *~ -0.5;
#X obj 438 214 +~ 0.5;
#X obj 38 183 /;
#X obj 127 152 samplerate~;
#X obj 38 261 s window-sec;
#X obj 177 214 swap;
#X obj 177 238 /;
#X obj 177 262 s window-hz;
#X obj 49 211 * 1000;
#X obj 49 238 s window-msec;
#X obj 38 115 t f b f;
#X obj 390 105 r window-hz;
#X msg 442 130 0;
#X obj 390 131 t f b;
#X text 15 8 calculate Hann window table (variable window size) and
constants window-hz (fundamental frequency of analysis) \, window-sec
and window-msec (analysis window size in seconds and msec).;
#X obj 391 247 tabwrite~ hanningWindow;
#X msg 213 142 \; hanningWindow resize \$1;
#X obj 38 88 r windowSize;
#X connect 1 0 2 0;
#X connect 2 0 3 0;
#X connect 3 0 17 0;
#X connect 4 0 6 0;
#X connect 4 0 10 0;
#X connect 5 0 4 1;
#X connect 5 0 7 1;
#X connect 7 0 8 0;
#X connect 7 1 8 1;
#X connect 8 0 9 0;
#X connect 10 0 11 0;
#X connect 12 0 4 0;
#X connect 12 0 7 0;
#X connect 12 1 5 0;
#X connect 12 2 18 0;
#X connect 13 0 15 0;
#X connect 14 0 1 1;
#X connect 15 0 1 0;
#X connect 15 1 14 0;
#X connect 15 1 17 0;
#X connect 19 0 12 0;
#X restore 33 157 pd hann-window;
#X msg 33 46 512;
#X msg 33 68 1024;
#X msg 33 90 2048;
#X msg 33 112 4096;
#X obj 33 15 loadbang;
#X obj 33 134 s windowSize;
#X text 24 671 // excercise:;
#X obj 147 14 bng 15 250 50 0 empty empty empty 17 7 0 10 -262144 -1
-1;
#X obj 147 34 openpanel;
#X obj 147 82 soundfiler;
#X obj 221 34 table sample1;
#X msg 147 58 read -resize \$1 sample1;
#X obj 327 14 bng 15 250 50 0 empty empty empty 17 7 0 10 -262144 -1
-1;
#X obj 327 34 openpanel;
#X obj 327 82 soundfiler;
#X obj 401 34 table sample2;
#X msg 327 58 read -resize \$1 sample2;
#X obj 228 299 bng 15 250 50 0 empty empty empty 17 7 0 10 -262144
-1 -1;
#X msg 167 297 stop;
#X obj 228 323 tabplay~ sample1;
#X obj 398 299 bng 15 250 50 0 empty empty empty 17 7 0 10 -262144
-1 -1;
#X msg 337 297 stop;
#N canvas 0 89 505 461 output 0;
#X obj 13 106 hsl 42 23 0.01 0.1 1 0 \$0-v \$0-v volume 7 13 1 9 -245500
-13381 -1 0 0;
#X obj 57 106 tgl 18 0 THIS_IS_HERE_TO_GET_RID_OF_THE_OUTLET \$0-dsp-toggle
dsp 2 9 1 9 -225271 -195568 -33289 1 1;
#N canvas 1009 460 429 371 dsp 0;
#X obj 36 30 inlet;
#X obj 117 227 select 0 1;
#X msg 150 252 6;
#X obj 117 86 route dsp;
#X obj 117 59 receive pd;
#X msg 36 228 dsp \$1;
#X obj 36 253 send pd;
#X msg 231 279 set \$1;
#X msg 117 279 color \$1 20 12;
#X obj 231 310 send \$0-dsp-toggle;
#X msg 117 251 0;
#X obj 251 129 loadbang;
#X obj 231 99 sig~ 1;
#X obj 231 191 snapshot~;
#X obj 251 158 delay 100;
#X obj 117 138 change -1;
#X obj 2 2 cnv 15 425 20 empty empty empty 3 12 0 14 -204280 -1 0;
#X text 6 3 Retrieve and set DSP state;
#X connect 0 0 5 0;
#X connect 0 0 15 0;
#X connect 1 0 10 0;
#X connect 1 1 2 0;
#X connect 2 0 8 0;
#X connect 3 0 15 0;
#X connect 4 0 3 0;
#X connect 5 0 6 0;
#X connect 7 0 9 0;
#X connect 8 0 9 0;
#X connect 10 0 8 0;
#X connect 11 0 14 0;
#X connect 12 0 13 0;
#X connect 13 0 1 0;
#X connect 13 0 7 0;
#X connect 14 0 13 0;
#X connect 15 0 7 0;
#X connect 15 0 1 0;
#X restore 82 148 pd dsp logic;
#X obj 188 31 inlet~;
#X obj 74 268 line~;
#X obj 174 328 *~;
#X obj 194 358 dac~;
#X text 200 51 audio in;
#X obj 250 31 inlet~;
#X obj 236 327 *~;
#X obj 188 102 hip~ 3;
#X obj 250 102 hip~ 3;
#X obj 10 283 send pd;
#X msg 10 262 dsp 1;
#X obj 74 247 pack 0 50;
#X text 141 246 <-- make a ramp to avoid clicks or zipper noise;
#X msg 74 212 0;
#X obj 74 189 moses 0.011;
#X text 294 103 filter out DC;
#X obj 4 3 cnv 15 425 20 empty empty empty 3 12 0 14 -204280 -1 0;
#X text 14 376 Created by Katja Vetter after an idea by Claude Heiland-Allen
;
#X text 10 3 dac~ and DSP switch;
#X connect 0 0 13 0;
#X connect 0 0 17 0;
#X connect 1 0 2 0;
#X connect 3 0 10 0;
#X connect 4 0 9 0;
#X connect 4 0 5 0;
#X connect 5 0 6 0;
#X connect 8 0 11 0;
#X connect 9 0 6 1;
#X connect 10 0 5 1;
#X connect 11 0 9 1;
#X connect 13 0 12 0;
#X connect 14 0 4 0;
#X connect 16 0 14 0;
#X connect 17 0 16 0;
#X connect 17 1 14 0;
#X coords 0 -1 1 1 85 60 1 5 85;
#X restore 330 489 pd output;
#X obj 398 323 tabplay~ sample2;
#N canvas 0 50 450 250 (subpatch) 0;
#X array convolutedSignal 1000 float 3;
#A 0 0 0 0 0 0 0 0 0 0 0 0 0 0 0 0 0 0 0 0 0 0 0 0 0 0 0 0 0 0 0 0
0 0 0 0 0 0 0 0 0 0 0 0 0 0 0 0 0 0 0 0 0 0 0 0 0 0 0 0 0 0 0 0 0 0
0 0 0 0 0 0 0 0 0 0 0 0 0 0 0 0 0 0 0 0 0 0 0 0 0 0 0 0 0 0 0 0 0 0
0 0 0 0 0 0 0 0 0 0 0 0 0 0 0 0 0 0 0 0 0 0 0 0 0 0 0 0 0 0 0 0 0 0
0 0 0 0 0 0 0 0 0 0 0 0 0 0 0 0 0 0 0 0 0 0 0 0 0 0 0 0 0 0 0 0 0 0
0 0 0 0 0 0 0 0 0 0 0 0 0 0 0 0 0 0 0 0 0 0 0 0 0 0 0 0 0 0 0 0 0 0
0 0 0 0 0 0 0 0 0 0 0 0 0 0 0 0 0 0 0 0 0 0 0 0 0 0 0 0 0 0 0 0 0 0
0 0 0 0 0 0 0 0 0 0 0 0 0 0 0 0 0 0 0 0 0 0 0 0 0 0 0 0 0 0 0 0 0 0
0 0 0 0 0 0 0 0 0 0 0 0 0 0 0 0 0 0 0 0 0 0 0 0 0 0 0 0 0 0 0 0 0 0
0 0 0 0 0 0 0 0 0 0 0 0 0 0 0 0 0 0 0 0 0 0 0 0 0 0 0 0 0 0 0 0 0 0
0 0 0 0 0 0 0 0 0 0 0 0 0 0 0 0 0 0 0 0 0 0 0 0 0 0 0 0 0 0 0 0 0 0
0 0 0 0 0 0 0 0 0 0 0 0 0 0 0 0 0 0 0 0 0 0 0 0 0 0 0 0 0 0 0 0 0 0
0 0 0 0 0 0 0 0 0 0 0 0 0 0 0 0 0 0 0 0 0 0 0 0 0 0 0 0 0 0 0 0 0 0
0 0 0 0 0 0 0 0 0 0 0 0 0 0 0 0 0 0 0 0 0 0 0 0 0 0 0 0 0 0 0 0 0 0
0 0 0 0 0 0 0 0 0 0 0 0 0 0 0 0 0 0 0 0 0 0 0 0 0 0 0 0 0 0 0 0 0 0
0 0 0 0 0 0 0 0 0 0 0 0 0 0 0 0 0 0 0 0 0 0 0 0 0 0 0 0 0 0 0 0 0 0
0 0 0 0 0 0 0 0 0 0 0 0 0 0 0 0 0 0 0 0 0 0 0 0 0 0 0 0 0 0 0 0 0 0
0 0 0 0 0 0 0 0 0 0 0 0 0 0 0 0 0 0 0 0 0 0 0 0 0 0 0 0 0 0 0 0 0 0
0 0 0 0 0 0 0 0 0 0 0 0 0 0 0 0 0 0 0 0 0 0 0 0 0 0 0 0 0 0 0 0 0 0
0 0 0 0 0 0 0 0 0 0 0 0 0 0 0 0 0 0 0 0 0 0 0 0 0 0 0 0 0 0 0 0 0 0
0 0 0 0 0 0 0 0 0 0 0 0 0 0 0 0 0 0 0 0 0 0 0 0 0 0 0 0 0 0 0 0 0 0
0 0 0 0 0 0 0 0 0 0 0 0 0 0 0 0 0 0 0 0 0 0 0 0 0 0 0 0 0 0 0 0 0 0
0 0 0 0 0 0 0 0 0 0 0 0 0 0 0 0 0 0 0 0 0 0 0 0 0 0 0 0 0 0 0 0 0 0
0 0 0 0 0 0 0 0 0 0 0 0 0 0 0 0 0 0 0 0 0 0 0 0 0 0 0 0 0 0 0 0 0 0
0 0 0 0 0 0 0 0 0 0 0 0 0 0 0 0 0 0 0 0 0 0 0 0 0 0 0 0 0 0 0 0 0 0
0 0 0 0 0 0 0 0 0 0 0 0 0 0 0 0 0 0 0 0 0 0 0 0 0 0 0 0 0 0 0 0 0 0
0 0 0 0 0 0 0 0 0 0 0 0 0 0 0 0 0 0 0 0 0 0 0 0 0 0 0 0 0 0 0 0 0 0
0 0 0 0 0 0 0 0 0 0 0 0 0 0 0 0 0 0 0 0 0 0 0 0 0 0 0 0 0 0 0 0 0 0
0 0 0 0 0 0 0 0 0 0 0 0 0 0 0 0 0 0 0 0 0 0 0 0 0 0 0 0 0 0 0 0 0 0
0 0 0 0 0 0 0 0 0 0 0 0 0 0 0 0 0;
#X coords 0 1 1000 -1 200 140 1 0 0;
#X restore 25 443 graph;
#X obj 317 577 tabwrite~ convolutedSignal;
#X obj 33 185 loadbang;
#X obj 33 232 array size convolutedSignal;
#X obj 33 259 loadbang;
#X obj 33 281 tgl 15 0 empty empty empty 17 7 0 10 -262144 -1 -1 1
1;
#X obj 33 301 metro 100;
#X obj 33 324 s tabwriteBang;
#X msg 33 209 1000;
#X obj 321 553 r tabwriteBang;
#X obj 542 58 tgl 15 0 empty empty playback_on/off 17 7 0 10 -262144
-1 -1 0 1;
#X obj 542 133 metro;
#X obj 542 235 pack f f f, f 26;
#X obj 769 97 hsl 128 15 0 164363 0 0 empty sample Beginning_point
-2 -8 0 10 -262144 -1 -1 0 1;
#X obj 777 159 hsl 128 15 0 164363 0 0 empty sample End_point -2 -8
0 10 -262144 -1 -1 0 1;
#X floatatom 766 257 7 0 0 0 - - -, f 7;
#X obj 766 212 expr ($f2 - $f1) / 44.1;
#X obj 774 184 t b f;
#X msg 542 258 \$1 0 \, \$2 \$3;
#X obj 542 284 vline~;
#X obj 721 8 r \$0-pb-speed;
#X obj 766 393 s \$0-pb-speed;
#X obj 782 297 hsl 128 15 2 0.01 0 0 empty empty playback_speed -2
-8 0 10 -262144 -1 -1 0 1;
#X obj 766 364 *;
#X obj 779 316 t b f;
#X obj 766 234 abs;
#X obj 631 197 t f b;
#X obj 721 40 t f b;
#X text 793 237 // duration of specified part;
#X obj 542 354 tabread4~ sample2;
#X msg 327 106 \; sample range 0 \$1 \;;
#X obj 542 307 lop~ 1;
#X floatatom 818 316 5 0 0 0 - - -, f 5;
#N canvas 0 89 571 323 selectSample 0;
#X obj 170 292 outlet;
#X msg 170 259 set \$1;
#X obj 171 202 symbol \$1;
#X symbolatom 170 226 20 0 0 0 - - -, f 20;
#X floatatom 170 156 5 0 0 0 - - -, f 5;
#X text 216 151 // array number;
#X text 304 177 // combine with array;
#X text 243 197 // send as symbol;
#X text 314 233 // just for debugging;
#X text 224 257 // dynamically change the array;
#X obj 196 21 inlet;
#X obj 236 21 inlet;
#X obj 276 20 inlet;
#X obj 316 20 inlet;
#X obj 196 44 del 50;
#X obj 246 44 del 50;
#X obj 296 44 del 50;
#X obj 346 44 del 50;
#X msg 196 74 3;
#X msg 236 74 4;
#X msg 276 74 5;
#X msg 316 74 6;
#X msg 170 178 sample\$1;
#X connect 1 0 0 0;
#X connect 2 0 3 0;
#X connect 3 0 1 0;
#X connect 4 0 22 0;
#X connect 10 0 14 0;
#X connect 11 0 15 0;
#X connect 12 0 16 0;
#X connect 13 0 17 0;
#X connect 14 0 18 0;
#X connect 15 0 19 0;
#X connect 16 0 20 0;
#X connect 17 0 21 0;
#X connect 18 0 4 0;
#X connect 19 0 4 0;
#X connect 20 0 4 0;
#X connect 21 0 4 0;
#X connect 22 0 2 0;
#X restore 426 748 pd selectSample;
#N canvas 133 455 428 217 loadSamples 0;
#X obj 41 150 soundfiler;
#X obj 41 173 outlet;
#X msg 36 36 read -resize samples/1.wav sample3;
#X msg 46 56 read -resize samples/2.wav sample4;
#X msg 56 76 read -resize samples/3.wav sample5;
#X msg 65 96 read -resize samples/4.wav sample6;
#X obj 298 32 table sample3;
#X obj 298 61 table sample4;
#X obj 298 92 table sample5;
#X obj 298 122 table sample6;
#X obj 24 5 inlet;
#X obj 74 5 inlet;
#X obj 124 5 inlet;
#X obj 174 5 inlet;
#X connect 0 0 1 0;
#X connect 2 0 0 0;
#X connect 3 0 0 0;
#X connect 4 0 0 0;
#X connect 5 0 0 0;
#X connect 10 0 2 0;
#X connect 11 0 3 0;
#X connect 12 0 4 0;
#X connect 13 0 5 0;
#X restore 426 659 pd loadSamples;
#X msg 426 693 \; sample range 0 \$1 \;;
#X msg 589 315 set sample2;
#X obj 318 455 *~ 1;
#X floatatom 357 428 5 0 0 0 - - -, f 5;
#X text 21 691 // make your own mapping;
#X text 21 731 // check the loadSamples and selectSamples subpatches
;
#X text 21 711 // send values to the beginning \, end points and pitch.
;
#X text 21 751 // make another mapping to select a different sample
on the fly;
#X msg 428 515 \; pd dsp \$1;
#X obj 428 473 loadbang;
#X obj 428 495 tgl 15 0 empty empty empty 17 7 0 10 -262144 -1 -1 1
1;
#X connect 0 0 63 0;
#X connect 2 0 7 0;
#X connect 3 0 7 0;
#X connect 4 0 7 0;
#X connect 5 0 7 0;
#X connect 6 0 2 0;
#X connect 9 0 10 0;
#X connect 10 0 13 0;
#X connect 13 0 11 0;
#X connect 14 0 15 0;
#X connect 15 0 18 0;
#X connect 16 0 56 0;
#X connect 18 0 16 0;
#X connect 19 0 21 0;
#X connect 20 0 21 0;
#X connect 21 0 0 0;
#X connect 21 1 19 0;
#X connect 22 0 25 0;
#X connect 23 0 25 0;
#X connect 25 0 0 1;
#X connect 25 1 22 0;
#X connect 28 0 34 0;
#X connect 30 0 31 0;
#X connect 31 0 32 0;
#X connect 32 0 33 0;
#X connect 34 0 29 0;
#X connect 35 0 27 0;
#X connect 36 0 37 0;
#X connect 37 0 38 0;
#X connect 38 0 44 0;
#X connect 39 0 42 0;
#X connect 39 0 38 0;
#X connect 40 0 43 0;
#X connect 40 0 52 0;
#X connect 41 0 49 0;
#X connect 42 0 51 0;
#X connect 43 0 42 0;
#X connect 43 1 42 1;
#X connect 44 0 45 0;
#X connect 45 0 57 0;
#X connect 46 0 37 1;
#X connect 46 0 53 0;
#X connect 48 0 50 0;
#X connect 48 0 58 0;
#X connect 49 0 47 0;
#X connect 50 0 49 0;
#X connect 50 1 49 1;
#X connect 51 0 41 0;
#X connect 52 0 38 1;
#X connect 52 1 38 0;
#X connect 53 0 38 2;
#X connect 53 1 38 0;
#X connect 57 0 55 0;
#X connect 60 0 61 0;
#X connect 62 0 55 0;
#X connect 63 0 24 0;
#X connect 63 0 24 1;
#X connect 63 0 27 0;
#X connect 64 0 63 1;
#X connect 70 0 71 0;
#X connect 71 0 69 0;
