#N canvas 342 336 912 471 12;
#X obj 132 200 env~;
#X obj 206 250 bonk~;
#X obj 17 14 bng 15 250 50 0 empty empty empty 17 7 0 10 -262144 -1
-1;
#X obj 17 34 openpanel;
#X obj 57 180 dac~;
#X obj 91 34 table sample;
#X obj 206 123 tabplay~ sample;
#X msg 17 58 read -resize \$1 sample;
#X obj 17 82 soundfiler;
#X obj 206 99 bng 15 250 50 0 empty empty empty 17 7 0 10 -262144 -1
-1;
#X msg 237 54 \; pd dsp \$1;
#X obj 237 12 loadbang;
#X obj 237 34 tgl 15 0 empty empty empty 17 7 0 10 -262144 -1 -1 1
1;
#X floatatom 132 224 5 0 0 0 - - -;
#X obj 132 247 dbtorms;
#X floatatom 132 271 5 0 0 0 - - -;
#X floatatom 234 299 5 0 0 0 - - -;
#X floatatom 278 300 5 0 0 0 - - -;
#X obj 234 275 unpack f f f;
#X floatatom 324 300 5 0 0 0 - - -;
#X obj 206 279 bng 15 250 50 0 empty empty empty 17 7 0 10 -262144
-1 -1;
#N canvas 741 169 680 476 templates 1;
#X msg 58 197 learn 0;
#X msg 58 227 forget;
#X msg 58 257 write templates.txt;
#X msg 58 287 read templates.txt;
#X msg 58 107 debounce 0;
#X msg 58 137 learn 10;
#X obj 31 402 outlet;
#X text 155 134 Forget all templates and start learning new ones. The
argument gives the number of times you will hit each instrument (10
recommended.) Turn on the output volume above for audible feedback
as you train Bonk. "Learn 0" exits learn mode.;
#X text 155 217 Forget the last template. In Learn mode \, use "forget"
to erase and record over a template.;
#X text 220 253 Write templates to a file in text-editable format.
;
#X text 221 283 Read templates from a file.;
#X text 157 104 Minimum time (msec) between attacks in learn mode;
#X connect 0 0 6 0;
#X connect 1 0 6 0;
#X connect 2 0 6 0;
#X connect 3 0 6 0;
#X connect 4 0 6 0;
#X connect 5 0 6 0;
#X restore 220 191 pd templates;
#X text 325 192 // bonk training;
#X msg 145 97 stop;
#X floatatom 457 212 5 0 0 0 - - -;
#X floatatom 692 211 5 0 0 0 - - -;
#X obj 692 234 mtof;
#X floatatom 692 258 5 0 0 0 - - -;
#X floatatom 574 217 5 0 0 0 - - -;
#X obj 457 235 mtof;
#X floatatom 457 259 5 0 0 0 - - -;
#X obj 457 188 sigmund~ -hop 4096 pitch env notes;
#X msg 223 223 minvel 90;
#X text 32 204 // envelope follower;
#X text 217 154 // attack detector;
#X text 454 151 // pitch tracker;
#X connect 0 0 13 0;
#X connect 1 0 20 0;
#X connect 1 1 18 0;
#X connect 2 0 3 0;
#X connect 3 0 7 0;
#X connect 6 0 0 0;
#X connect 6 0 1 0;
#X connect 6 0 4 0;
#X connect 6 0 4 1;
#X connect 6 0 31 0;
#X connect 6 1 9 0;
#X connect 7 0 8 0;
#X connect 9 0 6 0;
#X connect 11 0 12 0;
#X connect 12 0 10 0;
#X connect 13 0 14 0;
#X connect 14 0 15 0;
#X connect 18 0 16 0;
#X connect 18 1 17 0;
#X connect 18 2 19 0;
#X connect 21 0 1 0;
#X connect 23 0 6 0;
#X connect 24 0 29 0;
#X connect 25 0 26 0;
#X connect 26 0 27 0;
#X connect 29 0 30 0;
#X connect 31 0 24 0;
#X connect 31 1 28 0;
#X connect 31 2 25 0;
#X connect 32 0 1 0;
