#N canvas 328 325 1365 790 10;
#X declare -lib timbreID/timbreIDLib;
#X obj 17 14 bng 15 250 50 0 empty empty empty 17 7 0 10 -262144 -1
-1;
#X obj 17 34 openpanel;
#X obj 91 34 table sample;
#X obj 396 43 tabplay~ sample;
#X msg 17 58 read -resize \$1 sample;
#X obj 17 82 soundfiler;
#X obj 396 19 bng 15 250 50 0 empty empty empty 17 7 0 10 -262144 -1
-1;
#X msg 237 54 \; pd dsp \$1;
#X obj 237 12 loadbang;
#X obj 237 34 tgl 15 0 empty empty empty 17 7 0 10 -262144 -1 -1 1
1;
#X msg 335 17 stop;
#N canvas 0 89 505 461 output 0;
#X obj 13 106 hsl 42 23 0.01 0.1 1 0 \$0-v \$0-v volume 7 13 1 9 -245500
-13381 -1 4100 0;
#X obj 57 106 tgl 18 0 THIS_IS_HERE_TO_GET_RID_OF_THE_OUTLET \$0-dsp-toggle
dsp 2 9 1 9 -225271 -195568 -33289 1 1;
#N canvas 1009 460 429 371 dsp 0;
#X obj 36 30 inlet;
#X obj 117 227 select 0 1;
#X msg 150 252 6;
#X obj 117 86 route dsp;
#X obj 117 59 receive pd;
#X msg 36 228 dsp \$1;
#X obj 36 253 send pd;
#X msg 231 279 set \$1;
#X msg 117 279 color \$1 20 12;
#X obj 231 310 send \$0-dsp-toggle;
#X msg 117 251 0;
#X obj 251 129 loadbang;
#X obj 231 99 sig~ 1;
#X obj 231 191 snapshot~;
#X obj 251 158 delay 100;
#X obj 117 138 change -1;
#X obj 2 2 cnv 15 425 20 empty empty empty 3 12 0 14 -204280 -1 0;
#X text 6 3 Retrieve and set DSP state;
#X connect 0 0 5 0;
#X connect 0 0 15 0;
#X connect 1 0 10 0;
#X connect 1 1 2 0;
#X connect 2 0 8 0;
#X connect 3 0 15 0;
#X connect 4 0 3 0;
#X connect 5 0 6 0;
#X connect 7 0 9 0;
#X connect 8 0 9 0;
#X connect 10 0 8 0;
#X connect 11 0 14 0;
#X connect 12 0 13 0;
#X connect 13 0 1 0;
#X connect 13 0 7 0;
#X connect 14 0 13 0;
#X connect 15 0 7 0;
#X connect 15 0 1 0;
#X restore 82 148 pd dsp logic;
#X obj 188 31 inlet~;
#X obj 74 268 line~;
#X obj 174 328 *~;
#X obj 194 358 dac~;
#X text 200 51 audio in;
#X obj 250 31 inlet~;
#X obj 236 327 *~;
#X obj 188 102 hip~ 3;
#X obj 250 102 hip~ 3;
#X obj 10 283 send pd;
#X msg 10 262 dsp 1;
#X obj 74 247 pack 0 50;
#X text 141 246 <-- make a ramp to avoid clicks or zipper noise;
#X msg 74 212 0;
#X obj 74 189 moses 0.011;
#X text 294 103 filter out DC;
#X obj 4 3 cnv 15 425 20 empty empty empty 3 12 0 14 -204280 -1 0;
#X text 14 376 Created by Katja Vetter after an idea by Claude Heiland-Allen
;
#X text 10 3 dac~ and DSP switch;
#X connect 0 0 13 0;
#X connect 0 0 17 0;
#X connect 1 0 2 0;
#X connect 3 0 10 0;
#X connect 4 0 9 0;
#X connect 4 0 5 0;
#X connect 5 0 6 0;
#X connect 8 0 11 0;
#X connect 9 0 6 1;
#X connect 10 0 5 1;
#X connect 11 0 9 1;
#X connect 13 0 12 0;
#X connect 14 0 4 0;
#X connect 16 0 14 0;
#X connect 17 0 16 0;
#X connect 17 1 14 0;
#X coords 0 -1 1 1 85 60 1 5 85;
#X restore 550 54 pd output;
#X obj 396 68 s~ analysisInput;
#X obj 551 14 r~ analysisInput;
#X obj 175 123 s analysis-tick;
#X obj 348 273 list prepend 0;
#X obj 75 190 r analysis-tick;
#X obj 249 423 r analysis-tick;
#X obj 567 254 list prepend 0;
#X obj 615 190 r analysis-tick;
#X obj 787 274 list prepend 0;
#X obj 874 211 r analysis-tick;
#X msg 856 177 normalize 1;
#X obj 807 16 declare -lib timbreID/timbreIDLib;
#X obj 7 162 r~ analysisInput;
#X obj 267 162 r~ analysisInput;
#X obj 567 162 r~ analysisInput;
#X obj 787 122 r~ analysisInput;
#X obj 175 102 metro 500;
#X obj 96 232 table magSpec;
#X obj 7 402 s magSpec;
#X obj 7 311 list length;
#X obj 7 334 change;
#X msg 7 379 resize \$1;
#X floatatom 7 357 5 0 0 0 - - -, f 5;
#X obj 7 254 list prepend 0;
#X obj 7 278 s magSpec;
#X obj 7 501 tabread magSpec;
#X obj 7 429 f;
#X obj 7 452 + 1;
#X obj 7 475 %;
#X floatatom 7 524 10 0 0 0 - - -, f 10;
#X msg 342 65 0;
#X obj 342 88 s restartArray;
#X obj 43 448 r restartArray;
#X floatatom 250 96 5 0 0 0 - - -, f 5;
#X obj 348 330 list length;
#X obj 348 353 change;
#X msg 348 398 resize \$1;
#X floatatom 348 376 5 0 0 0 - - -, f 5;
#X obj 348 448 f;
#X obj 348 471 + 1;
#X obj 348 494 %;
#X floatatom 348 543 10 0 0 0 - - -, f 10;
#X obj 384 467 r restartArray;
#X obj 383 231 table barkSpec;
#X obj 348 297 s barkSpec;
#X obj 348 421 s barkSpec;
#X obj 348 520 tabread barkSpec;
#X obj 267 276 bng 30 250 50 0 empty empty empty 17 7 0 10 -262144
-1 -1;
#X text 5 144 // positive intensity of each bin;
#X text 263 142 // attack detector in percitive loudness;
#X obj 567 311 list length;
#X obj 567 334 change;
#X msg 567 379 resize \$1;
#X floatatom 567 357 5 0 0 0 - - -, f 5;
#X obj 567 429 f;
#X obj 567 452 + 1;
#X obj 567 475 %;
#X floatatom 567 524 10 0 0 0 - - -, f 10;
#X obj 603 448 r restartArray;
#X obj 656 232 table melSpec;
#X obj 567 277 s melSpec;
#X obj 567 402 s melSpec;
#X obj 567 501 tabread melSpec;
#X text 567 138 // percitive scale of pitches;
#X obj 856 153 r loadbang;
#X obj 256 33 s loadbang;
#X obj 787 331 list length;
#X obj 787 354 change;
#X msg 787 399 resize \$1;
#X floatatom 787 377 5 0 0 0 - - -, f 5;
#X obj 787 449 f;
#X obj 787 472 + 1;
#X obj 787 495 %;
#X floatatom 787 544 10 0 0 0 - - -, f 10;
#X obj 823 468 r restartArray;
#X obj 876 250 table chromaSpec;
#X obj 787 297 s chromaSpec;
#X obj 787 422 s chromaSpec;
#X obj 787 521 tabread chromaSpec;
#X obj 567 231 melSpec~ 1024;
#X obj 7 231 magSpec~ 1024;
#X obj 787 251 chroma~ 1024;
#X text 781 99 // energy per pitch no matter the octave;
#X obj 787 566 * 10;
#X floatatom 787 589 5 0 0 0 - - -, f 5;
#X obj 787 611 int;
#X floatatom 787 634 5 0 0 0 - - -, f 5;
#X obj 787 663 s tone;
#X obj 567 550 s mel;
#X obj 666 14 r~ r2d2;
#N canvas 771 731 550 402 r2d2 0;
#X obj 165 189 vline~;
#X obj 122 190 *~;
#X obj 202 66 bng 15 250 50 0 empty empty empty 17 7 0 10 -262144 -1
-1;
#X msg 165 166 0 \, 1 10 80 \, 0 10 100;
#X obj 121 236 clip~ -1 1;
#X obj 202 34 inlet;
#X msg 143 123 0;
#X obj 122 213 *~ 2;
#X obj 122 167 osc~;
#X obj 227 197 r tone;
#X obj 227 220 - 10;
#X obj 23 15 r mel;
#X floatatom 23 62 5 0 0 0 - - -, f 5;
#X obj 23 114 mtof;
#X obj 296 196 r mag;
#X floatatom 296 242 10 0 0 0 - - -, f 10;
#X obj 296 219 * 1000;
#X obj 296 264 sopiscale 90 100 1 6;
#X obj 152 315 rev3~ 90 90 120;
#X obj 23 38 * 1100;
#X obj 23 84 sopiscale 70 100 0 100;
#X obj 227 243 * -1;
#X obj 122 264 lop~ 10000;
#X obj 202 96 tgl 15 0 empty empty empty 17 7 0 10 -262144 -1 -1 0
1;
#X obj 202 113 == 0;
#X obj 202 136 sel 1;
#X obj 120 344 *~;
#X msg 426 287 \$1 10;
#X obj 426 310 line~;
#X obj 120 367 s~ r2d2;
#X obj 426 264 sopiscale 0.1 1 1 6;
#X connect 0 0 1 1;
#X connect 1 0 7 0;
#X connect 2 0 23 0;
#X connect 3 0 0 0;
#X connect 4 0 22 0;
#X connect 5 0 2 0;
#X connect 6 0 8 1;
#X connect 7 0 4 0;
#X connect 8 0 1 0;
#X connect 9 0 10 0;
#X connect 10 0 21 0;
#X connect 11 0 19 0;
#X connect 12 0 20 0;
#X connect 13 0 8 0;
#X connect 14 0 16 0;
#X connect 15 0 17 0;
#X connect 15 0 30 0;
#X connect 16 0 15 0;
#X connect 17 0 18 3;
#X connect 17 0 18 2;
#X connect 18 0 26 0;
#X connect 18 1 26 0;
#X connect 19 0 12 0;
#X connect 20 0 13 0;
#X connect 21 0 7 1;
#X connect 22 0 18 0;
#X connect 22 0 18 1;
#X connect 22 0 26 0;
#X connect 23 0 24 0;
#X connect 24 0 25 0;
#X connect 25 0 3 0;
#X connect 25 0 6 0;
#X connect 26 0 29 0;
#X connect 27 0 28 0;
#X connect 28 0 26 1;
#X connect 30 0 27 0;
#X restore 267 327 pd r2d2;
#X obj 7 560 s mag;
#X obj 267 231 bark~ 1024 256 0.9;
#X text 31 611 // excercise:;
#X text 31 631 // instead of a one-one mapping;
#X text 31 651 // create a many-events mapping;
#X text 31 671 // one something changes it does not change a value
;
#X text 31 691 // but it triggers a series of events: other samples
\, scales \, series of noises \, etc.;
#X text 31 721 // if you work with visuals. use these values to modify
your visuals;
#X obj 1036 331 list length;
#X obj 1036 354 change;
#X msg 1036 399 resize \$1;
#X floatatom 1036 377 5 0 0 0 - - -, f 5;
#X obj 1036 449 f;
#X obj 1036 472 + 1;
#X obj 1036 495 %;
#X floatatom 1036 544 10 0 0 0 - - -, f 10;
#X obj 1072 468 r restartArray;
#X obj 1036 251 mfcc~ 1024;
#X obj 1108 249 table mfcc;
#X obj 1036 521 tabread mfcc;
#X obj 1036 422 s mfcc;
#X obj 1084 209 r analysis-tick;
#X obj 1036 181 r~ analysisInput;
#X text 1026 153 // power spectrum on the mel scale;
#X obj 1036 274 list prepend 0;
#X obj 1036 297 s mfcc;
#X obj 1036 570 s mfccValues;
#X text 447 675 // expand your knowledge:;
#X text 445 689 // download the example folder of Timbre ID;
#X text 445 703 // http://williambrent.conflations.com/pd/timbreID/timbreID-examples.zip
;
#X connect 0 0 1 0;
#X connect 1 0 4 0;
#X connect 3 0 12 0;
#X connect 3 1 6 0;
#X connect 3 1 42 0;
#X connect 4 0 5 0;
#X connect 6 0 3 0;
#X connect 8 0 9 0;
#X connect 8 0 77 0;
#X connect 9 0 7 0;
#X connect 9 0 28 0;
#X connect 10 0 3 0;
#X connect 13 0 11 0;
#X connect 13 0 11 1;
#X connect 15 0 56 0;
#X connect 15 0 46 0;
#X connect 16 0 38 0;
#X connect 16 0 92 0;
#X connect 17 0 50 0;
#X connect 18 0 62 0;
#X connect 18 0 72 0;
#X connect 19 0 66 0;
#X connect 19 0 91 0;
#X connect 20 0 78 0;
#X connect 20 0 88 0;
#X connect 21 0 82 0;
#X connect 21 0 93 0;
#X connect 22 0 93 0;
#X connect 24 0 92 0;
#X connect 25 0 104 0;
#X connect 26 0 91 0;
#X connect 27 0 93 0;
#X connect 28 0 14 0;
#X connect 31 0 32 0;
#X connect 32 0 34 0;
#X connect 33 0 30 0;
#X connect 34 0 33 0;
#X connect 34 0 40 1;
#X connect 35 0 36 0;
#X connect 35 0 31 0;
#X connect 37 0 41 0;
#X connect 38 0 39 0;
#X connect 39 0 40 0;
#X connect 39 0 38 1;
#X connect 40 0 37 0;
#X connect 41 0 103 0;
#X connect 42 0 43 0;
#X connect 44 0 40 0;
#X connect 45 0 28 1;
#X connect 46 0 47 0;
#X connect 47 0 49 0;
#X connect 48 0 57 0;
#X connect 49 0 48 0;
#X connect 49 0 52 1;
#X connect 50 0 51 0;
#X connect 51 0 52 0;
#X connect 51 0 50 1;
#X connect 52 0 58 0;
#X connect 54 0 52 0;
#X connect 58 0 53 0;
#X connect 59 0 102 0;
#X connect 62 0 63 0;
#X connect 63 0 65 0;
#X connect 64 0 73 0;
#X connect 65 0 64 0;
#X connect 65 0 68 1;
#X connect 66 0 67 0;
#X connect 67 0 68 0;
#X connect 67 0 66 1;
#X connect 68 0 74 0;
#X connect 69 0 100 0;
#X connect 70 0 68 0;
#X connect 74 0 69 0;
#X connect 76 0 22 0;
#X connect 78 0 79 0;
#X connect 79 0 81 0;
#X connect 80 0 89 0;
#X connect 81 0 80 0;
#X connect 81 0 84 1;
#X connect 82 0 83 0;
#X connect 83 0 84 0;
#X connect 83 0 82 1;
#X connect 84 0 90 0;
#X connect 85 0 95 0;
#X connect 86 0 84 0;
#X connect 90 0 85 0;
#X connect 91 0 18 0;
#X connect 92 0 35 0;
#X connect 93 0 20 0;
#X connect 95 0 96 0;
#X connect 96 0 97 0;
#X connect 97 0 98 0;
#X connect 98 0 99 0;
#X connect 101 0 11 1;
#X connect 101 0 11 0;
#X connect 104 0 59 0;
#X connect 104 2 15 0;
#X connect 104 2 56 0;
#X connect 111 0 112 0;
#X connect 112 0 114 0;
#X connect 113 0 123 0;
#X connect 114 0 113 0;
#X connect 114 0 117 1;
#X connect 115 0 116 0;
#X connect 116 0 117 0;
#X connect 116 0 115 1;
#X connect 117 0 122 0;
#X connect 118 0 129 0;
#X connect 119 0 117 0;
#X connect 120 0 127 0;
#X connect 120 0 128 0;
#X connect 122 0 118 0;
#X connect 124 0 120 0;
#X connect 124 0 115 0;
#X connect 125 0 120 0;
#X connect 127 0 111 0;
