#N canvas 0 23 661 358 12;
#N canvas 0 23 450 278 (subpatch) 0;
#X array array1 12 float 3;
#A 0 3.23012e-12 2 3 4 5 6 7 8 9 10 11 12;
#X coords 0 1 12 -1 200 140 1;
#X restore 92 33 graph;
#X msg 98 304 \; array1 \$1 \$2;
#X floatatom 98 203 5 0 0 0 - - -;
#X floatatom 150 204 5 0 0 0 - - -;
#X obj 98 277 pack f f;
#X obj 150 227 t b f;
#X obj 183 267 * 0.01;
#X msg 307 205 \; array1 1 2 3 4 5 6 7 8 9 10 11 12;
#X msg 307 245 \; array1 normalize 1;
#X text 92 183 index;
#X text 147 182 value;
#X connect 2 0 4 0;
#X connect 3 0 5 0;
#X connect 4 0 1 0;
#X connect 5 0 4 0;
#X connect 5 1 6 0;
#X connect 6 0 4 1;
