#N canvas 551 237 886 769 12;
#X obj 246 478 *~;
#X floatatom 246 393 0 0 0 0 - - -;
#X floatatom 156 428 0 0 0 0 - - -;
#X obj 156 498 +~;
#X floatatom 268 448 0 0 0 0 - - -;
#X text 153 385 carrier;
#X text 152 403 frequency;
#X text 231 339 frequency;
#X text 232 352 modulation;
#X obj 155 622 osc~;
#X text 39 524 "carrier";
#X text 21 542 oscillator -->;
#X text 34 459 add modulator;
#X text 33 477 to carrier;
#X text 31 496 frequency -->;
#X text 307 460 index;
#X text 309 441 modulation;
#X obj 246 418 osc~;
#X obj 10 119 cyclone/mousestate;
#X text 144 120 // import external cyclone v 0.4;
#X obj 10 92 metro 10;
#X obj 10 71 tgl 15 0 empty empty empty 17 7 0 10 -262144 -1 -1 1 1
;
#X obj 10 44 loadbang;
#X text 8 3 // One-Many mapping / event mapping;
#X floatatom 10 147 5 0 0 0 - - -, f 5;
#X obj 10 171 change;
#X obj 10 195 t b;
#X floatatom 10 268 5 0 0 0 - - -, f 5;
#X text 453 582 // expand your knowledge;
#X text 432 102 // excercise:;
#X obj 88 165 s envelopeValue;
#X obj 243 508 r envelopeValue;
#X obj 243 532 t f b;
#X msg 243 556 \$1 100;
#X obj 243 580 line~;
#X obj 243 603 *~;
#X obj 243 628 *~;
#X obj 155 646 *~;
#X obj 10 219 random 9;
#X obj 10 243 + 1;
#X text 37 242 // random integres 1-10;
#X text 453 602 // phase modulation synthesis PD implementation;
#X text 453 622 // cmd/ctrl + B --> Pure Data/ 3.audio.examples/E08.phase.mod.pd
;
#N canvas 438 73 607 514 sequence 0;
#X floatatom 31 197 5 0 0 0 - - -, f 5;
#X floatatom 83 198 5 0 0 0 - - -, f 5;
#X obj 31 271 pack f f;
#X obj 83 221 t b f;
#X obj 116 261 * 0.01;
#X text 25 177 index;
#X text 80 176 value;
#X obj 221 157 t b;
#X obj 221 133 r event;
#X obj 221 185 metro 1000;
#X obj 221 209 f;
#X obj 221 233 + 1;
#X floatatom 221 332 5 0 0 0 - - -, f 5;
#X obj 221 354 mtof;
#X floatatom 221 378 5 0 0 0 - - -, f 5;
#X obj 221 401 s note;
#X obj 221 257 % 10;
#X msg 31 298 \; array1 \$1 \$2;
#X obj 221 306 tabread array1;
#X floatatom 221 280 5 0 0 0 - - -, f 5;
#N canvas 0 22 450 278 (subpatch) 0;
#X array array1 10 float 3;
#A 0 60 62 63 67 69 71 72 74 75 79;
#X coords 0 1 10 -1 200 140 1 0 0;
#X restore 14 17 graph;
#X msg 227 77 \; array1 read scale.txt;
#X msg 227 35 \; array1 0 83 84 86 88 90 91 93 95 96 98;
#X text 229 14 // different scales;
#X connect 0 0 2 0;
#X connect 1 0 3 0;
#X connect 2 0 17 0;
#X connect 3 0 2 0;
#X connect 3 1 4 0;
#X connect 4 0 2 1;
#X connect 7 0 9 0;
#X connect 8 0 7 0;
#X connect 9 0 10 0;
#X connect 10 0 11 0;
#X connect 11 0 10 1;
#X connect 11 0 16 0;
#X connect 12 0 13 0;
#X connect 13 0 14 0;
#X connect 14 0 15 0;
#X connect 16 0 19 0;
#X connect 18 0 12 0;
#X connect 19 0 18 0;
#X restore 434 170 pd sequence;
#X obj 87 218 s event;
#X text 432 122 // instead of triggering a note \, trigger a sequence
;
#X text 431 142 // remeber to use arrays or messages + select;
#X obj 463 471 loadbang;
#X obj 463 497 tgl 15 0 empty empty empty 17 7 0 10 -262144 -1 -1 1
1;
#X msg 463 519 \; pd dsp \$1;
#X obj 76 384 r note;
#X obj 162 286 expr $f1 * 100 \; $f1 * 0.5 \; $f1 * 1 \;;
#N canvas 0 89 505 461 output 0;
#X obj 13 106 hsl 42 23 0.01 0.1 1 0 \$0-v \$0-v volume 7 13 1 9 -245500
-13381 -1 0 0;
#X obj 57 106 tgl 18 0 THIS_IS_HERE_TO_GET_RID_OF_THE_OUTLET \$0-dsp-toggle
dsp 2 9 1 9 -225271 -195568 -33289 1 1;
#N canvas 1009 460 429 371 dsp 0;
#X obj 36 30 inlet;
#X obj 117 227 select 0 1;
#X msg 150 252 6;
#X obj 117 86 route dsp;
#X obj 117 59 receive pd;
#X msg 36 228 dsp \$1;
#X obj 36 253 send pd;
#X msg 231 279 set \$1;
#X msg 117 279 color \$1 20 12;
#X obj 231 310 send \$0-dsp-toggle;
#X msg 117 251 0;
#X obj 251 129 loadbang;
#X obj 231 99 sig~ 1;
#X obj 231 191 snapshot~;
#X obj 251 158 delay 100;
#X obj 117 138 change -1;
#X obj 2 2 cnv 15 425 20 empty empty empty 3 12 0 14 -204280 -1 0;
#X text 6 3 Retrieve and set DSP state;
#X connect 0 0 5 0;
#X connect 0 0 15 0;
#X connect 1 0 10 0;
#X connect 1 1 2 0;
#X connect 2 0 8 0;
#X connect 3 0 15 0;
#X connect 4 0 3 0;
#X connect 5 0 6 0;
#X connect 7 0 9 0;
#X connect 8 0 9 0;
#X connect 10 0 8 0;
#X connect 11 0 14 0;
#X connect 12 0 13 0;
#X connect 13 0 1 0;
#X connect 13 0 7 0;
#X connect 14 0 13 0;
#X connect 15 0 7 0;
#X connect 15 0 1 0;
#X restore 82 148 pd dsp logic;
#X obj 188 31 inlet~;
#X obj 74 268 line~;
#X obj 174 328 *~;
#X obj 194 358 dac~;
#X text 200 51 audio in;
#X obj 250 31 inlet~;
#X obj 236 327 *~;
#X obj 188 102 hip~ 3;
#X obj 250 102 hip~ 3;
#X obj 10 283 send pd;
#X msg 10 262 dsp 1;
#X obj 74 247 pack 0 50;
#X text 141 246 <-- make a ramp to avoid clicks or zipper noise;
#X msg 74 212 0;
#X obj 74 189 moses 0.011;
#X text 294 103 filter out DC;
#X obj 4 3 cnv 15 425 20 empty empty empty 3 12 0 14 -204280 -1 0;
#X text 14 376 Created by Katja Vetter after an idea by Claude Heiland-Allen
;
#X text 10 3 dac~ and DSP switch;
#X connect 0 0 13 0;
#X connect 0 0 17 0;
#X connect 1 0 2 0;
#X connect 3 0 10 0;
#X connect 4 0 9 0;
#X connect 4 0 5 0;
#X connect 5 0 6 0;
#X connect 8 0 11 0;
#X connect 9 0 6 1;
#X connect 10 0 5 1;
#X connect 11 0 9 1;
#X connect 13 0 12 0;
#X connect 14 0 4 0;
#X connect 16 0 14 0;
#X connect 17 0 16 0;
#X connect 17 1 14 0;
#X coords 0 -1 1 1 85 60 1 5 85;
#X restore 156 678 pd output;
#X connect 0 0 3 1;
#X connect 1 0 17 0;
#X connect 2 0 3 0;
#X connect 3 0 9 0;
#X connect 4 0 0 1;
#X connect 9 0 37 0;
#X connect 17 0 0 0;
#X connect 18 0 24 0;
#X connect 20 0 18 0;
#X connect 21 0 20 0;
#X connect 22 0 21 0;
#X connect 24 0 25 0;
#X connect 24 0 30 0;
#X connect 25 0 26 0;
#X connect 26 0 38 0;
#X connect 26 0 44 0;
#X connect 27 0 51 0;
#X connect 31 0 32 0;
#X connect 32 0 33 0;
#X connect 33 0 34 0;
#X connect 34 0 35 0;
#X connect 34 0 35 1;
#X connect 35 0 36 0;
#X connect 35 0 36 1;
#X connect 36 0 37 1;
#X connect 37 0 52 0;
#X connect 37 0 52 1;
#X connect 38 0 39 0;
#X connect 39 0 27 0;
#X connect 47 0 48 0;
#X connect 48 0 49 0;
#X connect 51 0 2 0;
#X connect 51 1 1 0;
#X connect 51 2 4 0;
