#N canvas 534 214 868 447 12;
#X obj 10 119 cyclone/mousestate;
#X text 144 120 // import external cyclone v 0.4;
#X obj 41 217 osc~;
#X floatatom 41 188 5 0 0 0 - - -;
#X obj 10 92 metro 10;
#X obj 10 71 tgl 15 0 empty empty empty 17 7 0 10 -262144 -1 -1 0 1
;
#X floatatom 113 197 5 0 0 0 - - -;
#X obj 113 220 sopiscale 0 1 0 899;
#X floatatom 113 244 5 0 0 0 - - -;
#X obj 41 351 *~;
#X obj 113 291 line~;
#X obj 113 315 *~;
#X obj 113 339 *~;
#X obj 41 375 dac~;
#X text 144 318 // exponential curve;
#X msg 113 267 \$1 5;
#X text 8 3 // One-One mapping;
#X obj 10 44 loadbang;
#X obj 234 2 loadbang;
#X msg 234 48 \; pd dsp \$1;
#X obj 234 27 tgl 15 0 empty empty empty 17 7 0 10 -262144 -1 -1 1
1;
#X text 465 332 // expand your knowledge;
#X text 465 352 // additive synthesis PD implementation;
#X text 465 372 // cmd/ctrl + B / Pure Data/ 3.audi.examples/D05.additive.pd
;
#X text 464 92 // excercise:;
#X text 464 112 // create your own theremin with different controls
;
#X text 465 153 // or using the same controls \, create a better and
most interesting interaction;
#X text 463 132 // examples: keyname \, osc \, notein;
#X connect 0 1 3 0;
#X connect 0 2 6 0;
#X connect 2 0 9 0;
#X connect 3 0 2 0;
#X connect 4 0 0 0;
#X connect 5 0 4 0;
#X connect 6 0 7 0;
#X connect 7 0 8 0;
#X connect 8 0 15 0;
#X connect 9 0 13 0;
#X connect 9 0 13 1;
#X connect 10 0 11 0;
#X connect 10 0 11 1;
#X connect 11 0 12 0;
#X connect 11 0 12 1;
#X connect 12 0 9 1;
#X connect 15 0 10 0;
#X connect 17 0 5 0;
#X connect 18 0 20 0;
#X connect 20 0 19 0;
