#N canvas 612 166 924 549 12;
#X obj 10 119 cyclone/mousestate;
#X text 144 120 // import external cyclone v 0.4;
#X obj 41 217 osc~;
#X floatatom 41 188 5 0 0 0 - - -, f 5;
#X obj 10 92 metro 10;
#X obj 10 71 tgl 15 0 empty empty empty 17 7 0 10 -262144 -1 -1 1 1
;
#X floatatom 113 197 5 0 0 0 - - -, f 5;
#X floatatom 113 244 5 0 0 0 - - -, f 5;
#X obj 41 351 *~;
#X obj 113 291 line~;
#X obj 113 315 *~;
#X obj 113 339 *~;
#X text 144 318 // exponential curve;
#X msg 113 267 \$1 5;
#X text 8 3 // One-One mapping;
#X obj 10 44 loadbang;
#X obj 234 2 loadbang;
#X msg 234 48 \; pd dsp \$1;
#X obj 234 27 tgl 15 0 empty empty empty 17 7 0 10 -262144 -1 -1 1
1;
#X text 465 332 // expand your knowledge;
#X text 465 352 // additive synthesis PD implementation;
#X text 465 372 // cmd/ctrl + B / Pure Data/ 3.audi.examples/D05.additive.pd
;
#X text 464 92 // excercise:;
#X text 464 112 // create your own theremin with different controls
;
#X text 465 153 // or using the same controls \, create a better and
most interesting interaction;
#X text 463 132 // examples: keyname \, osc \, notein;
#N canvas 0 89 505 461 output 0;
#X obj 13 106 hsl 42 23 0.01 0.1 1 0 \$0-v \$0-v volume 7 13 1 9 -245500
-13381 -1 0 0;
#X obj 57 106 tgl 18 0 THIS_IS_HERE_TO_GET_RID_OF_THE_OUTLET \$0-dsp-toggle
dsp 2 9 1 9 -225271 -195568 -33289 1 1;
#N canvas 1009 460 429 371 dsp 0;
#X obj 36 30 inlet;
#X obj 117 227 select 0 1;
#X msg 150 252 6;
#X obj 117 86 route dsp;
#X obj 117 59 receive pd;
#X msg 36 228 dsp \$1;
#X obj 36 253 send pd;
#X msg 231 279 set \$1;
#X msg 117 279 color \$1 20 12;
#X obj 231 310 send \$0-dsp-toggle;
#X msg 117 251 0;
#X obj 251 129 loadbang;
#X obj 231 99 sig~ 1;
#X obj 231 191 snapshot~;
#X obj 251 158 delay 100;
#X obj 117 138 change -1;
#X obj 2 2 cnv 15 425 20 empty empty empty 3 12 0 14 -204280 -1 0;
#X text 6 3 Retrieve and set DSP state;
#X connect 0 0 5 0;
#X connect 0 0 15 0;
#X connect 1 0 10 0;
#X connect 1 1 2 0;
#X connect 2 0 8 0;
#X connect 3 0 15 0;
#X connect 4 0 3 0;
#X connect 5 0 6 0;
#X connect 7 0 9 0;
#X connect 8 0 9 0;
#X connect 10 0 8 0;
#X connect 11 0 14 0;
#X connect 12 0 13 0;
#X connect 13 0 1 0;
#X connect 13 0 7 0;
#X connect 14 0 13 0;
#X connect 15 0 7 0;
#X connect 15 0 1 0;
#X restore 82 148 pd dsp logic;
#X obj 188 31 inlet~;
#X obj 74 268 line~;
#X obj 174 328 *~;
#X obj 194 358 dac~;
#X text 200 51 audio in;
#X obj 250 31 inlet~;
#X obj 236 327 *~;
#X obj 188 102 hip~ 3;
#X obj 250 102 hip~ 3;
#X obj 10 283 send pd;
#X msg 10 262 dsp 1;
#X obj 74 247 pack 0 50;
#X text 141 246 <-- make a ramp to avoid clicks or zipper noise;
#X msg 74 212 0;
#X obj 74 189 moses 0.011;
#X text 294 103 filter out DC;
#X obj 4 3 cnv 15 425 20 empty empty empty 3 12 0 14 -204280 -1 0;
#X text 14 376 Created by Katja Vetter after an idea by Claude Heiland-Allen
;
#X text 10 3 dac~ and DSP switch;
#X connect 0 0 13 0;
#X connect 0 0 17 0;
#X connect 1 0 2 0;
#X connect 3 0 10 0;
#X connect 4 0 9 0;
#X connect 4 0 5 0;
#X connect 5 0 6 0;
#X connect 8 0 11 0;
#X connect 9 0 6 1;
#X connect 10 0 5 1;
#X connect 11 0 9 1;
#X connect 13 0 12 0;
#X connect 14 0 4 0;
#X connect 16 0 14 0;
#X connect 17 0 16 0;
#X connect 17 1 14 0;
#X coords 0 -1 1 1 85 60 1 5 85;
#X restore 40 393 pd output;
#N canvas 0 89 450 300 sopiscale 0;
#X text 207 136 inlets;
#X text 208 187 _min value for the output range;
#X text 208 202 _max value for the output range;
#X text 206 223 _min value for the incoming range;
#X text 206 238 _max value for the incoming range;
#X text 211 165 _ float;
#X obj 102 193 *;
#X obj 103 30 inlet;
#X obj 117 168 /;
#X obj 102 301 outlet;
#X obj 172 80 float \$1;
#X obj 118 81 float \$2;
#X obj 103 58 t f b b b b;
#X obj 150 114 float \$4;
#X obj 207 115 float \$3;
#X obj 118 101 -;
#X obj 149 145 -;
#X obj 56 176 -;
#X obj 44 121 t f b;
#X obj 71 146 float \$3;
#X obj 102 221 t f b;
#X obj 102 260 +;
#X obj 128 243 float \$1;
#X obj 44 93 clip;
#X obj 145 32 loadbang;
#X obj 215 36 inlet;
#X obj 265 36 inlet;
#X obj 313 28 inlet;
#X obj 365 36 inlet;
#X connect 6 0 20 0;
#X connect 7 0 12 0;
#X connect 8 0 6 1;
#X connect 10 0 15 1;
#X connect 11 0 15 0;
#X connect 12 0 23 0;
#X connect 12 1 11 0;
#X connect 12 2 10 0;
#X connect 12 3 13 0;
#X connect 12 4 14 0;
#X connect 13 0 16 0;
#X connect 13 0 23 2;
#X connect 14 0 16 1;
#X connect 14 0 23 1;
#X connect 15 0 8 0;
#X connect 16 0 8 1;
#X connect 17 0 6 0;
#X connect 18 0 17 0;
#X connect 18 1 19 0;
#X connect 19 0 17 1;
#X connect 20 0 21 0;
#X connect 20 1 22 0;
#X connect 21 0 9 0;
#X connect 22 0 21 1;
#X connect 23 0 18 0;
#X connect 24 0 11 0;
#X connect 24 0 10 0;
#X connect 24 0 13 0;
#X connect 24 0 14 0;
#X connect 25 0 10 1;
#X connect 25 0 22 1;
#X connect 26 0 11 1;
#X connect 27 0 14 1;
#X connect 27 0 19 1;
#X connect 28 0 13 1;
#X restore 336 271 pd sopiscale;
#X obj 113 220 sopiscale 0 1 0 899;
#X obj 637 242 keyname;
#X connect 0 1 3 0;
#X connect 0 2 6 0;
#X connect 2 0 8 0;
#X connect 3 0 2 0;
#X connect 4 0 0 0;
#X connect 5 0 4 0;
#X connect 6 0 28 0;
#X connect 7 0 13 0;
#X connect 8 0 26 0;
#X connect 8 0 26 1;
#X connect 9 0 10 0;
#X connect 9 0 10 1;
#X connect 10 0 11 0;
#X connect 10 0 11 1;
#X connect 11 0 8 1;
#X connect 13 0 9 0;
#X connect 15 0 5 0;
#X connect 16 0 18 0;
#X connect 18 0 17 0;
#X connect 28 0 7 0;
