#N canvas 4 23 1436 855 12;
#X declare -lib iem_ambi -lib iemmatrix;
#X obj 128 284 env~;
#X obj 78 199 readsf~ 4;
#X floatatom 128 309 5 0 0 0 - - -;
#X obj 78 88 symbol;
#X msg 78 113 open \$1;
#X msg 88 136 1;
#X obj 138 32 bng 15 250 50 0 empty empty empty 17 7 0 10 -262144 -1
-1;
#X text 156 31 // loop;
#X msg 98 166 0;
#X obj 128 335 vsl 15 128 0 100 0 0 empty empty empty 0 -9 0 10 -262144
-1 -1 0 1;
#X obj 78 284 env~;
#X floatatom 78 309 5 0 0 0 - - -;
#X obj 78 335 vsl 15 128 0 100 0 0 empty empty empty 0 -9 0 10 -262144
-1 -1 0 1;
#X obj 178 284 env~;
#X floatatom 178 309 5 0 0 0 - - -;
#X obj 178 335 vsl 15 128 0 100 0 0 empty empty empty 0 -9 0 10 -262144
-1 -1 0 1;
#X obj 29 284 env~;
#X floatatom 29 309 5 0 0 0 - - -;
#X obj 29 335 vsl 15 128 0 100 0 0 empty empty empty 0 -9 0 10 -262144
-1 -1 0 1;
#X floatatom 501 120 5 -180 180 0 - - -;
#X floatatom 462 119 5 -90 90 0 - - -;
#X obj 482 167 pack 0 0;
#X obj 501 145 t b f;
#X text 403 274 // scaling factor 0-1;
#X text 401 286 // per ambisonic order 0-n;
#X text 333 504 // 4 in = 1st Order A-Format;
#X obj 28 230 s~ ch1;
#X obj 78 230 s~ ch2;
#X obj 128 230 s~ ch3;
#X obj 178 230 s~ ch4;
#X obj 28 260 r~ ch1;
#X obj 78 260 r~ ch2;
#X obj 128 260 r~ ch3;
#X obj 178 260 r~ ch4;
#X obj 335 530 r~ ch1;
#X obj 385 530 r~ ch2;
#X obj 435 530 r~ ch3;
#X obj 485 530 r~ ch4;
#X text 240 4 //------ B-Format Encoding;
#X text 20 4 //------ A-Format Playback;
#X text 800 4 //------ G-Format Decoding;
#X text 848 354 // 1st order \, 2-dim \, 4 outs \, 0 phantom;
#X obj 805 32 loadbang;
#X msg 867 193 real_ls \$1 \$2;
#X msg 871 274 begin_pseudo_inverse;
#X msg 875 325 end_pseudo_inverse;
#X obj 805 55 bng 15 250 50 0 empty empty empty 0 -6 0 8 -262144 -1
-1;
#X obj 805 74 t b b b b;
#X msg 865 109 ambi_weight 1 1;
#X msg 867 140 1 45 \, 2 90 \, 3 270 \, 4 315;
#X text 1019 254 // start the encoding;
#X text 1019 265 // of all (real + phantom) loudspeaker positions \,
;
#X text 1019 277 // multiplicates the ambi order weight;
#X text 1018 289 // and calculates the pseudo inverse.;
#X text 1050 161 // input: <real_ls> re_ls_index + phi (0-360) .. 2-dimensional
;
#X text 1050 191 // input: <real_ls> re_ls_index + theta (0-360) +
phi (0-360) .. 3-dimensional;
#X obj 275 610 s~ W;
#X obj 824 430 r~ W;
#X obj 751 510 s~ out1;
#X obj 811 510 s~ out2;
#X obj 871 510 s~ out3;
#X obj 931 510 s~ out4;
#X obj 871 576 env~;
#X floatatom 871 601 5 0 0 0 - - -;
#X obj 871 627 vsl 15 128 0 100 0 0 empty empty empty 0 -9 0 10 -262144
-1 -1 0 1;
#X obj 811 576 env~;
#X floatatom 811 601 5 0 0 0 - - -;
#X obj 811 627 vsl 15 128 0 100 0 0 empty empty empty 0 -9 0 10 -262144
-1 -1 0 1;
#X obj 931 576 env~;
#X floatatom 931 601 5 0 0 0 - - -;
#X obj 931 627 vsl 15 128 0 100 0 0 empty empty empty 0 -9 0 10 -262144
-1 -1 0 1;
#X obj 752 576 env~;
#X floatatom 752 601 5 0 0 0 - - -;
#X obj 752 627 vsl 15 128 0 100 0 0 empty empty empty 0 -9 0 10 -262144
-1 -1 0 1;
#X obj 752 549 r~ out1;
#X obj 811 549 r~ out2;
#X obj 871 549 r~ out3;
#X obj 931 549 r~ out4;
#X obj 322 367 t b a;
#X obj 372 368 print encList;
#X obj 342 448 print encMtx;
#X obj 395 249 loadbang;
#X msg 482 201 row 1 \$1 \$2;
#X text 318 23 // \$1 theta/elevation;
#X text 318 53 // \$2 phi/azimuth;
#X text 318 34 // -90 - 90;
#X text 318 64 // -180 - 180;
#X msg 322 116 row 1 35.3 45;
#X msg 332 146 row 2 -35.3 -45;
#X msg 342 176 row 3 -35.3 135;
#X obj 244 67 loadbang;
#X msg 395 306 ambi_weight 1 0.577;
#X msg 362 206 row 4 35.3 -135;
#X obj 322 411 mtx 4 4;
#X obj 322 569 mtx_*~ 4 4;
#X obj 322 343 ambi_encode 1;
#X obj 315 610 s~ Z1X1;
#X obj 375 610 s~ Z1Y1;
#X obj 435 610 s~ Z1;
#X text 333 484 // 4 out = 1st Order B-Format;
#X text 821 410 // ignoring z1 as we are decoding 2 dim;
#X text 311 93 // parameters for a Rode NT-SF1;
#X obj 54 569 loadbang;
#X obj 54 593 tgl 15 0 empty empty empty 17 7 0 10 -262144 -1 -1 1
1;
#X msg 54 617 \; pd dsp \$1;
#X text 550 4 //------ B-Format Rotation;
#X obj 599 89 ambi_rot 1;
#X floatatom 599 61 6 -180 180 0 - - -;
#X obj 634 117 r~ Z1X1;
#X obj 694 117 r~ Z1Y1;
#X obj 599 187 s~ rotZ1X1;
#X obj 679 187 s~ rotZ1Y1;
#X text 593 29 // rot z angle;
#X text 593 42 // -180 - 180;
#X obj 599 150 mtx_*~ 2 2;
#X obj 864 430 r~ rotZ1X1;
#X obj 944 430 r~ rotZ1Y1;
#X msg 908 168 1 45 \, 2 315;
#X obj 808 372 ambi_decode3 1 2 4 0;
#X obj 808 469 mtx_*~ 4 3;
#X obj 31 685 declare -lib iem_ambi -lib iemmatrix;
#X msg 78 63 A_Format/3.wav;
#X obj 802 824 dac~ 1 2 3 4;
#X obj 735 770 r~ out1;
#X obj 795 770 r~ out2;
#X obj 855 770 r~ out3;
#X obj 915 770 r~ out4;
#X obj 735 794 *~ 0.1;
#X obj 795 794 *~ 0.1;
#X obj 855 794 *~ 0.1;
#X obj 915 794 *~ 0.1;
#X connect 0 0 2 0;
#X connect 1 0 26 0;
#X connect 1 1 27 0;
#X connect 1 2 28 0;
#X connect 1 3 29 0;
#X connect 1 4 6 0;
#X connect 2 0 9 0;
#X connect 3 0 4 0;
#X connect 4 0 1 0;
#X connect 4 0 5 0;
#X connect 5 0 1 0;
#X connect 6 0 121 0;
#X connect 8 0 1 0;
#X connect 10 0 11 0;
#X connect 11 0 12 0;
#X connect 13 0 14 0;
#X connect 14 0 15 0;
#X connect 16 0 17 0;
#X connect 17 0 18 0;
#X connect 19 0 22 0;
#X connect 20 0 21 0;
#X connect 21 0 82 0;
#X connect 22 0 21 0;
#X connect 22 1 21 1;
#X connect 30 0 16 0;
#X connect 31 0 10 0;
#X connect 32 0 0 0;
#X connect 33 0 13 0;
#X connect 34 0 94 1;
#X connect 35 0 94 2;
#X connect 36 0 94 3;
#X connect 37 0 94 4;
#X connect 42 0 46 0;
#X connect 43 0 118 0;
#X connect 44 0 118 0;
#X connect 45 0 118 0;
#X connect 46 0 47 0;
#X connect 47 0 45 0;
#X connect 47 1 44 0;
#X connect 47 2 49 0;
#X connect 47 3 48 0;
#X connect 48 0 118 0;
#X connect 49 0 43 0;
#X connect 57 0 119 1;
#X connect 62 0 63 0;
#X connect 63 0 64 0;
#X connect 65 0 66 0;
#X connect 66 0 67 0;
#X connect 68 0 69 0;
#X connect 69 0 70 0;
#X connect 71 0 72 0;
#X connect 72 0 73 0;
#X connect 74 0 71 0;
#X connect 75 0 65 0;
#X connect 76 0 62 0;
#X connect 77 0 68 0;
#X connect 78 0 93 0;
#X connect 78 1 93 0;
#X connect 81 0 91 0;
#X connect 87 0 95 0;
#X connect 88 0 95 0;
#X connect 89 0 95 0;
#X connect 90 0 87 0;
#X connect 90 0 88 0;
#X connect 90 0 89 0;
#X connect 90 0 92 0;
#X connect 91 0 95 0;
#X connect 92 0 95 0;
#X connect 93 0 94 0;
#X connect 93 0 80 0;
#X connect 94 0 56 0;
#X connect 94 1 96 0;
#X connect 94 2 97 0;
#X connect 94 3 98 0;
#X connect 95 0 78 0;
#X connect 95 0 79 0;
#X connect 102 0 103 0;
#X connect 103 0 104 0;
#X connect 106 0 114 0;
#X connect 107 0 106 0;
#X connect 108 0 114 1;
#X connect 109 0 114 2;
#X connect 114 0 110 0;
#X connect 114 1 111 0;
#X connect 115 0 119 2;
#X connect 116 0 119 3;
#X connect 118 0 119 0;
#X connect 119 0 58 0;
#X connect 119 1 59 0;
#X connect 119 2 60 0;
#X connect 119 3 61 0;
#X connect 121 0 3 0;
#X connect 123 0 127 0;
#X connect 124 0 128 0;
#X connect 125 0 129 0;
#X connect 126 0 130 0;
#X connect 127 0 122 0;
#X connect 128 0 122 1;
#X connect 129 0 122 2;
#X connect 130 0 122 3;
