#N canvas 4 23 957 855 12;
#X floatatom 159 328 5 0 0 2 - - -;
#X floatatom 112 665 10 0 0 0 - - -;
#X floatatom 191 665 10 0 0 0 - - -;
#X floatatom 169 569 0 0 0 3 actual_azimuth - -;
#X floatatom 181 535 0 0 0 3 actual_elevation - -;
#X floatatom 191 504 7 0 0 1 actual_spreading - -;
#X obj 162 312 hsl 100 13 0 360 0 1 empty empty azimuth 10 7 0 10 -262144
-1 -1 2500 1;
#X floatatom 237 417 5 0 0 2 - - -;
#X obj 240 400 hsl 100 13 0 100 0 1 empty empty spread 10 7 0 10 -262144
-1 -1 700 1;
#X text 130 264 to output updated values;
#X obj 112 285 metro 100;
#X obj 112 263 tgl 15 0 empty empty empty 17 7 0 10 -262144 -1 -1 1
1;
#X obj 63 764 *~;
#X obj 92 765 *~;
#X floatatom 270 665 10 0 0 0 - - -;
#X floatatom 349 665 10 0 0 0 - - -;
#X obj 123 764 *~;
#X obj 152 765 *~;
#X msg 17 88 define_loudspeakers 2 -135 -45 0 45 135;
#X text 11 44 Define 2D speaker arrangement with speakers at -135 \,
-45 \, 0 \, 45 and 135 degree positions (0 degrees is the center front).
This is a classic 5.1 setup.;
#X floatatom 429 665 10 0 0 0 - - -;
#X obj 72 798 dac~ 1 2 3 4 5;
#X obj 182 765 *~;
#X obj 112 467 vbap 0 0 30;
#X obj 112 616 route 0 1 2 3 4;
#X obj 13 604 noise~;
#X text 453 67 // 1st arg is Dimensions 2 or 3;
#X text 453 87 // rest args are speakers' [azimuth \, elevation] in
degrees (-180 - 180).;
#X text 453 117 // Azimuth of 0 == front centre \; Elvation of 0 ==
no elevation;
#X msg 41 135 define_loudspeakers 3 -45 45 -135 135 32 5 94 34 34 11
;
#X obj 112 241 loadbang;
#X floatatom 207 367 5 0 0 2 - - -;
#X obj 210 350 hsl 100 13 0 360 0 0 empty empty elevation 10 7 0 10
-262144 -1 -1 0 1;
#X text 312 347 (0-360);
#X obj 518 310 loadbang;
#X obj 518 334 tgl 15 0 empty empty empty 17 7 0 10 -262144 -1 -1 1
1;
#X msg 518 358 \; pd dsp \$1;
#X text 342 398 (0-100);
#X text 231 615 // route should have as many indexes as loudspeakers
;
#X text 411 790 Vector Base Amplitude Panning;
#X text 631 789 (C) 1998-2003 \, 2006 Ville Pulkki;
#X text 632 768 // comments on the vbap help file;
#X text 267 309 (0-360);
#X msg 77 188 define_loudspeakers 2 0 45 135 -135 -45;
#X text 362 188 // the arragenment (clock-wise \, anti clock-wise \,
etc) is up to you;
#X text 505 666 // loudspeakers' gain;
#X text 452 148 // in 2D we don't specify elevation;
#X obj 68 604 adc~;
#X obj 13 636 *~ 0.01;
#X connect 0 0 23 1;
#X connect 1 0 12 1;
#X connect 2 0 13 1;
#X connect 6 0 0 0;
#X connect 7 0 23 3;
#X connect 8 0 7 0;
#X connect 10 0 23 0;
#X connect 11 0 10 0;
#X connect 12 0 21 0;
#X connect 13 0 21 1;
#X connect 14 0 16 1;
#X connect 15 0 17 1;
#X connect 16 0 21 2;
#X connect 17 0 21 3;
#X connect 18 0 23 0;
#X connect 20 0 22 1;
#X connect 22 0 21 4;
#X connect 23 0 24 0;
#X connect 23 1 3 0;
#X connect 23 2 4 0;
#X connect 23 3 5 0;
#X connect 24 0 1 0;
#X connect 24 1 2 0;
#X connect 24 2 14 0;
#X connect 24 3 15 0;
#X connect 24 4 20 0;
#X connect 25 0 48 0;
#X connect 29 0 23 0;
#X connect 30 0 11 0;
#X connect 31 0 23 2;
#X connect 32 0 31 0;
#X connect 34 0 35 0;
#X connect 35 0 36 0;
#X connect 43 0 23 0;
#X connect 48 0 12 0;
#X connect 48 0 13 0;
#X connect 48 0 16 0;
#X connect 48 0 17 0;
#X connect 48 0 22 0;
