#N canvas 4 23 718 855 10;
#X obj 50 27 tgl 15 0 empty empty empty 17 7 0 10 -262144 -1 -1 1 1
;
#X obj 50 50 metro 100;
#X floatatom 39 106 5 0 0 0 X - -;
#X floatatom 78 106 5 0 0 1 Y - -;
#X obj 78 201 t b f;
#X obj 39 233 atan2;
#X floatatom 39 256 5 0 0 0 - - -;
#X obj 39 198 f;
#X text 187 43 // the centre of the screen should be 0;
#X text 188 54 // for X and Y;
#X text 189 63 // X and Y should be scaled to -1 - 1;
#X text 189 83 https://en.wikipedia.org/wiki/Atan2#/media/File:Atan2_60.svg
;
#X floatatom 39 324 5 0 0 0 - - -;
#X obj 39 301 expr $f1 / (4*atan(1));
#X obj 39 278 expr $f1 * 180;
#X floatatom 179 151 5 0 0 0 - - -;
#X floatatom 49 151 5 0 0 0 - - -;
#X text 81 256 // radians;
#X text 131 276 // Radians to degree = (rad * 180) /pi;
#X obj 50 71 cyclone/mousestate;
#X floatatom 39 485 5 0 0 0 - - -;
#X obj 39 464 keyup;
#X obj 39 505 expr if($f1 == 119 \, if($f2 < 100 \, $f2 + 1 \, 100)
\, if($f1 == 115 \, if($f2 > -100 \, $f2 - 1 \, -100) \, $f2));
#X floatatom 39 545 5 0 0 0 - - -;
#X obj 179 171 s yCoord;
#X obj 49 171 s xCoord;
#X obj 39 727 atan2;
#X obj 66 604 r xCoord;
#X obj 286 602 r yCoord;
#X obj 66 655 expr sqrt(pow($f1 \, 2) + pow($f2 \, 2));
#X obj 286 623 t f b;
#X floatatom 39 748 5 0 0 0 - - -;
#X floatatom 39 815 5 0 0 0 - - -;
#X obj 39 792 expr $f1 / (4*atan(1));
#X obj 39 769 expr $f1 * 180;
#X text 131 767 // Radians to degree = (rad * 180) /pi;
#X obj 39 570 sopiscale -1 1 -100 100;
#X text 74 749 // radians;
#X text 109 703 // the centre of the screen should be 0;
#X text 190 27 // azimuth (phi) = atan2(x \, y);
#X text 112 687 // elevation = atan2(z \, sqrt(x**2 + y**2));
#X text 402 514 // the range -100 - 100 is arbitrary;
#X text 87 464 // W is Up & S is Down;
#X obj 39 701 f;
#X obj 66 676 t b f;
#X text 311 128 // input here your screen resolution;
#X obj 39 128 sopiscale -1 1 0 1439;
#X obj 179 128 sopiscale 1 -1 0 899;
#X floatatom 39 407 5 0 0 0 - - -;
#X text 112 342 90;
#X text 65 342 -90;
#X text 84 322 -0/0;
#X text 325 363 0/360;
#X obj 39 386 expr if($f1 < 0 \, $f1 * -1 \, ($f1 - 360) * -1);
#X text 351 383 270;
#X text 332 403 180;
#X text 312 383 90;
#X text 71 362 -180/180;
#X connect 0 0 1 0;
#X connect 1 0 19 0;
#X connect 2 0 46 0;
#X connect 3 0 47 0;
#X connect 4 0 7 0;
#X connect 4 1 5 1;
#X connect 5 0 6 0;
#X connect 6 0 14 0;
#X connect 7 0 5 0;
#X connect 12 0 53 0;
#X connect 13 0 12 0;
#X connect 14 0 13 0;
#X connect 15 0 24 0;
#X connect 16 0 25 0;
#X connect 19 1 2 0;
#X connect 19 2 3 0;
#X connect 20 0 22 0;
#X connect 21 0 20 0;
#X connect 22 0 23 0;
#X connect 23 0 22 1;
#X connect 23 0 36 0;
#X connect 26 0 31 0;
#X connect 27 0 29 0;
#X connect 28 0 30 0;
#X connect 29 0 44 0;
#X connect 30 0 29 1;
#X connect 30 1 29 0;
#X connect 31 0 34 0;
#X connect 33 0 32 0;
#X connect 34 0 33 0;
#X connect 36 0 43 0;
#X connect 43 0 26 0;
#X connect 44 0 43 0;
#X connect 44 1 26 1;
#X connect 46 0 16 0;
#X connect 46 0 7 0;
#X connect 47 0 15 0;
#X connect 47 0 4 0;
#X connect 53 0 48 0;
