#N canvas 512 357 762 434 10;
#X obj 152 91 mousestate;
#X obj 152 47 tgl 15 0 empty empty empty 17 7 0 10 -262144 -1 -1 0
1;
#X obj 152 70 metro 100;
#X floatatom 141 126 5 0 0 0 X - -, f 5;
#X floatatom 180 126 5 0 0 1 Y - -, f 5;
#X obj 180 211 t b f;
#X obj 141 243 atan2;
#X floatatom 141 266 5 0 0 0 - - -, f 5;
#X obj 141 208 f;
#X text 360 26 // Cartesian to Polar 2D;
#X text 362 37 // azimuth (phi) = atan2(y \, x);
#X text 359 53 // the centre of the screen should be 0;
#X text 360 64 // for X and Y;
#X text 361 73 // X and Y should be scaled to -1 - 1;
#X text 361 93 https://en.wikipedia.org/wiki/Atan2#/media/File:Atan2_60.svg
;
#X obj 141 148 sopiscale -1 1 0 1919;
#X obj 281 148 sopiscale 1 -1 0 1199;
#X floatatom 141 334 5 0 0 0 - - -, f 5;
#X obj 141 311 expr $f1 / (4*atan(1));
#X obj 141 288 expr $f1 * 180;
#X floatatom 281 171 5 0 0 0 - - -, f 5;
#X floatatom 151 171 5 0 0 0 - - -, f 5;
#X obj 141 356 * -1;
#X floatatom 141 379 5 0 0 0 - - -, f 5;
#X text 183 266 // radians;
#X text 233 286 // Radians to degree = (rad * 180) /pi;
#X connect 0 1 3 0;
#X connect 0 2 4 0;
#X connect 1 0 2 0;
#X connect 2 0 0 0;
#X connect 3 0 15 0;
#X connect 4 0 16 0;
#X connect 5 0 8 0;
#X connect 5 1 6 1;
#X connect 6 0 7 0;
#X connect 7 0 19 0;
#X connect 8 0 6 0;
#X connect 15 0 21 0;
#X connect 15 0 8 0;
#X connect 16 0 20 0;
#X connect 16 0 5 0;
#X connect 17 0 22 0;
#X connect 18 0 17 0;
#X connect 19 0 18 0;
#X connect 22 0 23 0;
